<svg xmlns="http://www.w3.org/2000/svg" viewBox="0 0 91 19" fill="none"><path d="M11.22 18.56H3.62C3.18 18.56 2.76 18.4733 2.36 18.3C1.97333 18.1267 1.63333 17.8867 1.34 17.58C1.04667 17.2867 0.813333 16.94 0.64 16.54C0.466667 16.14 0.38 15.72 0.38 15.28C0.38 14.8267 0.46 14.4 0.62 14C0.793333 13.6133 1.02667 13.2733 1.32 12.98C1.61333 12.6733 1.95333 12.4333 2.34 12.26C2.74 12.0867 3.16667 12 3.62 12H11C11.3067 12 11.5933 11.8867 11.86 11.66C12.14 11.42 12.28 11.1067 12.28 10.72V8.82H11.22V6.86H15.84C16.3467 6.86 16.8133 6.95333 17.24 7.14C17.68 7.32667 18.06 7.58 18.38 7.9C18.7 8.22 18.9533 8.6 19.14 9.04C19.3267 9.46667 19.42 9.93333 19.42 10.44C19.42 10.9333 19.3267 11.4 19.14 11.84C18.9533 12.2667 18.6933 12.64 18.36 12.96C18.04 13.28 17.66 13.5333 17.22 13.72C16.7933 13.9067 16.3333 14 15.84 14C15.3733 14 14.9267 13.9133 14.5 13.74C14.0867 13.5533 13.7067 13.2933 13.36 12.96C13.04 13.2933 12.68 13.5533 12.28 13.74C11.88 13.9133 11.4533 14 11 14H3.62C3.27333 14 2.97333 14.12 2.72 14.36C2.46667 14.6133 2.34 14.92 2.34 15.28C2.34 15.6267 2.46667 15.9267 2.72 16.18C2.97333 16.4333 3.27333 16.56 3.62 16.56H11.22V18.56ZM14.22 8.82V10.44C14.22 10.6533 14.26 10.86 14.34 11.06C14.4333 11.2467 14.5533 11.4133 14.7 11.56C14.86 11.7067 15.0333 11.8267 15.22 11.92C15.42 12 15.6267 12.04 15.84 12.04C16.0667 12.04 16.2733 12 16.46 11.92C16.66 11.8267 16.8333 11.7067 16.98 11.56C17.1267 11.4133 17.24 11.2467 17.32 11.06C17.4133 10.86 17.46 10.6533 17.46 10.44C17.46 9.98667 17.3 9.60667 16.98 9.3C16.6733 8.98 16.2933 8.82 15.84 8.82H14.22ZM24.4501 14H20.0901V12H24.4501C24.7967 12 25.0967 11.88 25.3501 11.64C25.6034 11.4 25.7301 11.1133 25.7301 10.78C25.7301 10.54 25.6767 10.3267 25.5701 10.14C25.4767 9.94 25.3434 9.78667 25.1701 9.68L21.6101 7.22L22.6501 5.6C22.6901 5.62667 22.8034 5.70667 22.9901 5.84C23.1767 5.96 23.3901 6.10667 23.6301 6.28C23.8834 6.44 24.1567 6.62 24.4501 6.82C24.7434 7.00667 25.0167 7.19333 25.2701 7.38C25.5367 7.55333 25.7634 7.70667 25.9501 7.84C26.1501 7.97333 26.2834 8.06667 26.3501 8.12C26.7767 8.41333 27.1034 8.79333 27.3301 9.26C27.5701 9.71333 27.6901 10.22 27.6901 10.78C27.6901 11.22 27.6034 11.6333 27.4301 12.02C27.2567 12.4067 27.0167 12.7467 26.7101 13.04C26.4167 13.3333 26.0767 13.5667 25.6901 13.74C25.3034 13.9133 24.8901 14 24.4501 14ZM33.012 14H32.032C31.5787 14 31.152 13.9133 30.752 13.74C30.352 13.5667 30.0054 13.3333 29.712 13.04C29.4187 12.7467 29.1854 12.4 29.012 12C28.8387 11.6 28.752 11.1733 28.752 10.72V2.2H30.712V10.74C30.712 11.0867 30.8387 11.3867 31.092 11.64C31.3454 11.88 31.6587 12 32.032 12H33.012C33.3187 12 33.5654 12.0867 33.752 12.26C33.9387 12.4333 34.032 12.6733 34.032 12.98C34.032 13.3 33.9387 13.5533 33.752 13.74C33.5787 13.9133 33.332 14 33.012 14ZM40.1823 14H32.5823C32.2623 14 32.0157 13.9133 31.8423 13.74C31.6557 13.5533 31.5623 13.3 31.5623 12.98C31.5623 12.6733 31.6557 12.4333 31.8423 12.26C32.029 12.0867 32.2757 12 32.5823 12H40.1823C40.5423 12 40.8423 11.8733 41.0823 11.62C41.3357 11.3667 41.4623 11.0667 41.4623 10.72C41.4623 10.4133 41.409 10.16 41.3023 9.96C41.1957 9.74667 41.0623 9.57333 40.9023 9.44C40.7557 9.30667 40.589 9.20667 40.4023 9.14C40.229 9.07333 40.069 9.02667 39.9223 9C38.709 8.76 37.5023 8.52667 36.3023 8.3C35.1023 8.07333 33.8957 7.84667 32.6823 7.62V5.92L36.7023 2.74L37.8823 4.02L35.4023 6.16C36.1757 6.30667 36.9757 6.46 37.8023 6.62C38.629 6.76667 39.469 6.92 40.3223 7.08C41.3223 7.26667 42.0823 7.66 42.6023 8.26C43.1357 8.86 43.4023 9.68 43.4023 10.72C43.4023 11.1733 43.3223 11.6 43.1623 12C43.0023 12.4 42.7757 12.7467 42.4823 13.04C42.189 13.3333 41.849 13.5667 41.4623 13.74C41.0757 13.9133 40.649 14 40.1823 14ZM47.3438 14H45.3438V3H47.3438V14ZM43.9438 2.74L42.3638 2.14L42.4638 1.94C42.7305 1.42 43.0838 0.986667 43.5238 0.64C43.9638 0.28 44.4772 0.1 45.0638 0.1L48.6038 0.0800002V1.76H45.4838C45.0838 1.76 44.7705 1.83333 44.5438 1.98C44.3305 2.12667 44.1305 2.38 43.9438 2.74ZM50.7561 18.88L50.2561 17.16L50.5961 17.04C51.0094 16.8667 51.4094 16.6933 51.7961 16.52C52.1961 16.3467 52.5428 16.1333 52.8361 15.88C53.4228 15.3867 53.7161 14.7067 53.7161 13.84V7.12H55.7161V13.86C55.6761 14.62 55.5361 15.26 55.2961 15.78C55.0694 16.3133 54.7561 16.7667 54.3561 17.14C53.9694 17.5133 53.5028 17.8267 52.9561 18.08C52.4094 18.3333 51.8028 18.56 51.1361 18.76L50.7561 18.88ZM61.0835 14H60.1035C59.6502 14 59.2235 13.9133 58.8235 13.74C58.4235 13.5667 58.0768 13.3333 57.7835 13.04C57.4902 12.7467 57.2568 12.4 57.0835 12C56.9102 11.6 56.8235 11.1733 56.8235 10.72V2.2H58.7835V10.74C58.7835 11.0867 58.9102 11.3867 59.1635 11.64C59.4168 11.88 59.7302 12 60.1035 12H61.0835C61.3902 12 61.6368 12.0867 61.8235 12.26C62.0102 12.4333 62.1035 12.6733 62.1035 12.98C62.1035 13.3 62.0102 13.5533 61.8235 13.74C61.6502 13.9133 61.4035 14 61.0835 14ZM67.4538 14C66.9072 14 66.3538 13.94 65.7938 13.82C65.2338 13.7 64.7738 13.46 64.4138 13.1C63.7738 13.7 63.0272 14 62.1738 14H60.6338C60.3138 14 60.0672 13.9133 59.8938 13.74C59.7072 13.5533 59.6138 13.3 59.6138 12.98C59.6138 12.66 59.7005 12.42 59.8738 12.26C60.0472 12.0867 60.3005 12 60.6338 12H62.1738C62.5205 12 62.8205 11.8733 63.0738 11.62C63.3272 11.3533 63.4538 11.0333 63.4538 10.66V7.5H65.4538V10.72C65.4538 11.0667 65.5738 11.3667 65.8138 11.62C66.0672 11.8733 66.3738 12 66.7338 12H67.7138C68.0338 12 68.2805 12.0867 68.4538 12.26C68.6405 12.42 68.7338 12.66 68.7338 12.98C68.7338 13.4067 68.6072 13.6867 68.3538 13.82C68.1138 13.94 67.8138 14 67.4538 14ZM61.5538 16.32H63.4138V18.22H61.5538V16.32ZM64.6538 16.32H66.5138V18.22H64.6538V16.32ZM72.3622 14.02C71.8955 14.02 71.4489 13.9333 71.0222 13.76C70.5955 13.5733 70.2155 13.3133 69.8822 12.98C69.2289 13.66 68.4422 14 67.5222 14H67.2422C66.9355 14 66.6889 13.9133 66.5022 13.74C66.3155 13.5667 66.2222 13.3267 66.2222 13.02C66.2222 12.7 66.3155 12.4533 66.5022 12.28C66.6755 12.0933 66.9222 12 67.2422 12H67.5222C67.8289 12 68.1155 11.8867 68.3822 11.66C68.6622 11.4333 68.8022 11.1267 68.8022 10.74V7.04L72.3622 6.88C72.8689 6.88 73.3355 6.97333 73.7622 7.16C74.2022 7.34667 74.5822 7.6 74.9022 7.92C75.2222 8.24 75.4755 8.62 75.6622 9.06C75.8489 9.48667 75.9422 9.95333 75.9422 10.46V10.68C75.9689 11.0667 76.1022 11.3867 76.3422 11.64C76.5822 11.88 76.8822 12 77.2422 12H77.4822C77.8022 12 78.0489 12.0933 78.2222 12.28C78.4089 12.4533 78.5022 12.7 78.5022 13.02C78.5022 13.3267 78.4089 13.5667 78.2222 13.74C78.0489 13.9133 77.8022 14 77.4822 14H77.2422C76.7889 14 76.3555 13.9133 75.9422 13.74C75.5422 13.5533 75.1889 13.3 74.8822 12.98C74.1622 13.6733 73.3222 14.02 72.3622 14.02ZM70.7422 8.88V10.46C70.7422 10.6733 70.7822 10.88 70.8622 11.08C70.9555 11.2667 71.0755 11.4333 71.2222 11.58C71.3689 11.7267 71.5422 11.8467 71.7422 11.94C71.9422 12.02 72.1489 12.06 72.3622 12.06C72.5889 12.06 72.7955 12.02 72.9822 11.94C73.1822 11.8467 73.3555 11.7267 73.5022 11.58C73.6489 11.4333 73.7622 11.2667 73.8422 11.08C73.9355 10.88 73.9822 10.6733 73.9822 10.46C73.9822 10.0067 73.8222 9.62667 73.5022 9.32C73.1955 9 72.8155 8.84 72.3622 8.84L70.7422 8.88ZM86.7302 14H77.0902C76.7702 14 76.5236 13.9133 76.3502 13.74C76.1636 13.5533 76.0702 13.3 76.0702 12.98C76.0702 12.6733 76.1636 12.4333 76.3502 12.26C76.5369 12.0867 76.7836 12 77.0902 12H78.9302C78.6769 11.5067 78.5502 10.98 78.5502 10.42C78.5502 9.78 78.7369 9.14667 79.1102 8.52C78.6569 8.30667 78.2569 7.94667 77.9102 7.44L77.7302 7.16L78.9502 6L79.2102 6.26C79.6902 6.7 80.1769 6.92 80.6702 6.92L86.7302 6.86C87.2102 6.86 87.6636 6.95333 88.0902 7.14C88.5302 7.32667 88.9102 7.58667 89.2302 7.92C89.5636 8.24 89.8236 8.62 90.0102 9.06C90.1969 9.48667 90.2902 9.94 90.2902 10.42C90.2902 10.9133 90.1969 11.38 90.0102 11.82C89.8236 12.2467 89.5702 12.6267 89.2502 12.96C88.9302 13.28 88.5502 13.5333 88.1102 13.72C87.6836 13.9067 87.2236 14 86.7302 14ZM85.3502 12H86.7302C87.1702 12 87.5369 11.8533 87.8302 11.56C88.1369 11.2533 88.2902 10.8733 88.2902 10.42C88.2902 9.98 88.1369 9.60667 87.8302 9.3C87.5369 8.99333 87.1702 8.83333 86.7302 8.82L85.3302 8.86C85.5969 9.35333 85.7302 9.87333 85.7302 10.42C85.7302 10.9933 85.6036 11.52 85.3502 12ZM82.1102 8.88C81.6836 8.88 81.3169 9.03333 81.0102 9.34C80.7036 9.64667 80.5502 10.0067 80.5502 10.42C80.5502 10.86 80.7036 11.2333 81.0102 11.54C81.3169 11.8467 81.6836 12 82.1102 12C82.5636 12 82.9436 11.8533 83.2502 11.56C83.5702 11.2533 83.7302 10.8733 83.7302 10.42C83.7302 10.0067 83.5702 9.64667 83.2502 9.34C82.9302 9.03333 82.5502 8.88 82.1102 8.88Z" fill="#fff"></path></svg>