<svg xmlns="http://www.w3.org/2000/svg" viewBox="0 0 94 22" fill="none"><path d="M12.24 20.9745H3.94909C3.46909 20.9745 3.01091 20.88 2.57455 20.6909C2.15273 20.5018 1.78182 20.24 1.46182 19.9055C1.14182 19.5855 0.887273 19.2073 0.698182 18.7709C0.509091 18.3345 0.414545 17.8764 0.414545 17.3964C0.414545 16.9018 0.501818 16.4364 0.676364 16C0.865455 15.5782 1.12 15.2073 1.44 14.8873C1.76 14.5527 2.13091 14.2909 2.55273 14.1018C2.98909 13.9127 3.45455 13.8182 3.94909 13.8182H12C12.3345 13.8182 12.6473 13.6945 12.9382 13.4473C13.2436 13.1855 13.3964 12.8436 13.3964 12.4218V10.3491H12.24V8.21091H17.28C17.8327 8.21091 18.3418 8.31273 18.8073 8.51636C19.2873 8.72 19.7018 8.99636 20.0509 9.34545C20.4 9.69455 20.6764 10.1091 20.88 10.5891C21.0836 11.0545 21.1855 11.5636 21.1855 12.1164C21.1855 12.6545 21.0836 13.1636 20.88 13.6436C20.6764 14.1091 20.3927 14.5164 20.0291 14.8655C19.68 15.2145 19.2655 15.4909 18.7855 15.6945C18.32 15.8982 17.8182 16 17.28 16C16.7709 16 16.2836 15.9055 15.8182 15.7164C15.3673 15.5127 14.9527 15.2291 14.5745 14.8655C14.2255 15.2291 13.8327 15.5127 13.3964 15.7164C12.96 15.9055 12.4945 16 12 16H3.94909C3.57091 16 3.24364 16.1309 2.96727 16.3927C2.69091 16.6691 2.55273 17.0036 2.55273 17.3964C2.55273 17.7745 2.69091 18.1018 2.96727 18.3782C3.24364 18.6545 3.57091 18.7927 3.94909 18.7927H12.24V20.9745ZM15.5127 10.3491V12.1164C15.5127 12.3491 15.5564 12.5745 15.6436 12.7927C15.7455 12.9964 15.8764 13.1782 16.0364 13.3382C16.2109 13.4982 16.4 13.6291 16.6036 13.7309C16.8218 13.8182 17.0473 13.8618 17.28 13.8618C17.5273 13.8618 17.7527 13.8182 17.9564 13.7309C18.1745 13.6291 18.3636 13.4982 18.5236 13.3382C18.6836 13.1782 18.8073 12.9964 18.8945 12.7927C18.9964 12.5745 19.0473 12.3491 19.0473 12.1164C19.0473 11.6218 18.8727 11.2073 18.5236 10.8727C18.1891 10.5236 17.7745 10.3491 17.28 10.3491H15.5127ZM26.1928 16H21.4364V13.8182H26.1928C26.571 13.8182 26.8983 13.6873 27.1746 13.4255C27.451 13.1636 27.5892 12.8509 27.5892 12.4873C27.5892 12.2255 27.531 11.9927 27.4146 11.7891C27.3128 11.5709 27.1674 11.4036 26.9783 11.2873L23.0946 8.60364L24.2292 6.83636C24.2728 6.86545 24.3964 6.95273 24.6001 7.09818C24.8037 7.22909 25.0364 7.38909 25.2983 7.57818C25.5746 7.75273 25.8728 7.94909 26.1928 8.16727C26.5128 8.37091 26.811 8.57455 27.0874 8.77818C27.3783 8.96727 27.6255 9.13455 27.8292 9.28C28.0474 9.42545 28.1928 9.52727 28.2655 9.58545C28.731 9.90545 29.0874 10.32 29.3346 10.8291C29.5964 11.3236 29.7274 11.8764 29.7274 12.4873C29.7274 12.9673 29.6328 13.4182 29.4437 13.84C29.2546 14.2618 28.9928 14.6327 28.6583 14.9527C28.3383 15.2727 27.9674 15.5273 27.5455 15.7164C27.1237 15.9055 26.6728 16 26.1928 16ZM35.0531 16H33.984C33.4895 16 33.024 15.9055 32.5877 15.7164C32.1513 15.5273 31.7731 15.2727 31.4531 14.9527C31.1331 14.6327 30.8786 14.2545 30.6895 13.8182C30.5004 13.3818 30.4059 12.9164 30.4059 12.4218V3.12727H32.544V12.4436C32.544 12.8218 32.6822 13.1491 32.9586 13.4255C33.2349 13.6873 33.5768 13.8182 33.984 13.8182H35.0531C35.3877 13.8182 35.6568 13.9127 35.8604 14.1018C36.064 14.2909 36.1659 14.5527 36.1659 14.8873C36.1659 15.2364 36.064 15.5127 35.8604 15.7164C35.6713 15.9055 35.4022 16 35.0531 16ZM42.3953 16H34.1044C33.7553 16 33.4862 15.9055 33.2971 15.7164C33.0935 15.5127 32.9916 15.2364 32.9916 14.8873C32.9916 14.5527 33.0935 14.2909 33.2971 14.1018C33.5007 13.9127 33.7698 13.8182 34.1044 13.8182H42.3953C42.788 13.8182 43.1153 13.68 43.3771 13.4036C43.6535 13.1273 43.7916 12.8 43.7916 12.4218C43.7916 12.0873 43.7335 11.8109 43.6171 11.5927C43.5007 11.36 43.3553 11.1709 43.1807 11.0255C43.0207 10.88 42.8389 10.7709 42.6353 10.6982C42.4462 10.6255 42.2716 10.5745 42.1116 10.5455C40.788 10.2836 39.4716 10.0291 38.1626 9.78182C36.8535 9.53455 35.5371 9.28727 34.2135 9.04V7.18545L38.5989 3.71636L39.8862 5.11273L37.1807 7.44727C38.0244 7.60727 38.8971 7.77455 39.7989 7.94909C40.7007 8.10909 41.6171 8.27636 42.548 8.45091C43.6389 8.65455 44.468 9.08364 45.0353 9.73818C45.6171 10.3927 45.908 11.2873 45.908 12.4218C45.908 12.9164 45.8207 13.3818 45.6462 13.8182C45.4716 14.2545 45.2244 14.6327 44.9044 14.9527C44.5844 15.2727 44.2135 15.5273 43.7916 15.7164C43.3698 15.9055 42.9044 16 42.3953 16ZM49.7278 16H47.546V4H49.7278V16ZM46.0187 3.71636L44.2951 3.06182L44.4042 2.84364C44.6951 2.27636 45.0805 1.80364 45.5605 1.42545C46.0405 1.03273 46.6005 0.836364 47.2405 0.836364L51.1024 0.814546V2.64727H47.6987C47.2624 2.64727 46.9205 2.72727 46.6733 2.88727C46.4405 3.04727 46.2224 3.32364 46.0187 3.71636ZM52.4903 21.3236L51.9448 19.4473L52.3157 19.3164C52.7666 19.1273 53.203 18.9382 53.6248 18.7491C54.0612 18.56 54.4394 18.3273 54.7594 18.0509C55.3994 17.5127 55.7194 16.7709 55.7194 15.8255V8.49455H57.9012V15.8473C57.8576 16.6764 57.7048 17.3745 57.443 17.9418C57.1957 18.5236 56.8539 19.0182 56.4176 19.4255C55.9957 19.8327 55.4866 20.1745 54.8903 20.4509C54.2939 20.7273 53.6321 20.9745 52.9048 21.1927L52.4903 21.3236ZM63.2766 16H62.2075C61.7129 16 61.2475 15.9055 60.8111 15.7164C60.3747 15.5273 59.9966 15.2727 59.6766 14.9527C59.3566 14.6327 59.102 14.2545 58.9129 13.8182C58.7238 13.3818 58.6293 12.9164 58.6293 12.4218V3.12727H60.7675V12.4436C60.7675 12.8218 60.9057 13.1491 61.182 13.4255C61.4584 13.6873 61.8002 13.8182 62.2075 13.8182H63.2766C63.6111 13.8182 63.8802 13.9127 64.0838 14.1018C64.2875 14.2909 64.3893 14.5527 64.3893 14.8873C64.3893 15.2364 64.2875 15.5127 64.0838 15.7164C63.8947 15.9055 63.6257 16 63.2766 16ZM69.746 16C69.1496 16 68.546 15.9345 67.9351 15.8036C67.3242 15.6727 66.8224 15.4109 66.4296 15.0182C65.7314 15.6727 64.9169 16 63.986 16H62.306C61.9569 16 61.6878 15.9055 61.4987 15.7164C61.2951 15.5127 61.1933 15.2364 61.1933 14.8873C61.1933 14.5382 61.2878 14.2764 61.4769 14.1018C61.666 13.9127 61.9424 13.8182 62.306 13.8182H63.986C64.3642 13.8182 64.6914 13.68 64.9678 13.4036C65.2442 13.1127 65.3824 12.7636 65.3824 12.3564V8.90909H67.5642V12.4218C67.5642 12.8 67.6951 13.1273 67.9569 13.4036C68.2333 13.68 68.5678 13.8182 68.9605 13.8182H70.0296C70.3787 13.8182 70.6478 13.9127 70.8369 14.1018C71.0405 14.2764 71.1424 14.5382 71.1424 14.8873C71.1424 15.3527 71.0042 15.6582 70.7278 15.8036C70.466 15.9345 70.1387 16 69.746 16ZM63.3096 18.5309H65.3387V20.6036H63.3096V18.5309ZM66.6914 18.5309H68.7205V20.6036H66.6914V18.5309ZM74.6206 16.0218C74.1115 16.0218 73.6242 15.9273 73.1588 15.7382C72.6933 15.5345 72.2788 15.2509 71.9151 14.8873C71.2024 15.6291 70.3442 16 69.3406 16H69.0351C68.7006 16 68.4315 15.9055 68.2278 15.7164C68.0242 15.5273 67.9224 15.2655 67.9224 14.9309C67.9224 14.5818 68.0242 14.3127 68.2278 14.1236C68.4169 13.92 68.686 13.8182 69.0351 13.8182H69.3406C69.6751 13.8182 69.9878 13.6945 70.2788 13.4473C70.5842 13.2 70.7369 12.8655 70.7369 12.4436V8.40727L74.6206 8.23273C75.1733 8.23273 75.6824 8.33455 76.1478 8.53818C76.6278 8.74182 77.0424 9.01818 77.3915 9.36727C77.7406 9.71636 78.0169 10.1309 78.2206 10.6109C78.4242 11.0764 78.526 11.5855 78.526 12.1382V12.3782C78.5551 12.8 78.7006 13.1491 78.9624 13.4255C79.2242 13.6873 79.5515 13.8182 79.9442 13.8182H80.206C80.5551 13.8182 80.8242 13.92 81.0133 14.1236C81.2169 14.3127 81.3188 14.5818 81.3188 14.9309C81.3188 15.2655 81.2169 15.5273 81.0133 15.7164C80.8242 15.9055 80.5551 16 80.206 16H79.9442C79.4497 16 78.9769 15.9055 78.526 15.7164C78.0897 15.5127 77.7042 15.2364 77.3697 14.8873C76.5842 15.6436 75.6678 16.0218 74.6206 16.0218ZM72.8533 10.4145V12.1382C72.8533 12.3709 72.8969 12.5964 72.9842 12.8145C73.086 13.0182 73.2169 13.2 73.3769 13.36C73.5369 13.52 73.726 13.6509 73.9442 13.7527C74.1624 13.84 74.3878 13.8836 74.6206 13.8836C74.8678 13.8836 75.0933 13.84 75.2969 13.7527C75.5151 13.6509 75.7042 13.52 75.8642 13.36C76.0242 13.2 76.1478 13.0182 76.2351 12.8145C76.3369 12.5964 76.3878 12.3709 76.3878 12.1382C76.3878 11.6436 76.2133 11.2291 75.8642 10.8945C75.5297 10.5455 75.1151 10.3709 74.6206 10.3709L72.8533 10.4145ZM89.8148 16H79.2984C78.9493 16 78.6803 15.9055 78.4912 15.7164C78.2875 15.5127 78.1857 15.2364 78.1857 14.8873C78.1857 14.5527 78.2875 14.2909 78.4912 14.1018C78.6948 13.9127 78.9639 13.8182 79.2984 13.8182H81.3057C81.0293 13.28 80.8912 12.7055 80.8912 12.0945C80.8912 11.3964 81.0948 10.7055 81.5021 10.0218C81.0075 9.78909 80.5712 9.39636 80.193 8.84364L79.9966 8.53818L81.3275 7.27273L81.6112 7.55636C82.1348 8.03636 82.6657 8.27636 83.2039 8.27636L89.8148 8.21091C90.3384 8.21091 90.833 8.31273 91.2984 8.51636C91.7784 8.72 92.193 9.00364 92.5421 9.36727C92.9057 9.71636 93.1893 10.1309 93.393 10.6109C93.5966 11.0764 93.6984 11.5709 93.6984 12.0945C93.6984 12.6327 93.5966 13.1418 93.393 13.6218C93.1893 14.0873 92.913 14.5018 92.5639 14.8655C92.2148 15.2145 91.8003 15.4909 91.3203 15.6945C90.8548 15.8982 90.353 16 89.8148 16ZM88.3093 13.8182H89.8148C90.2948 13.8182 90.6948 13.6582 91.0148 13.3382C91.3493 13.0036 91.5166 12.5891 91.5166 12.0945C91.5166 11.6145 91.3493 11.2073 91.0148 10.8727C90.6948 10.5382 90.2948 10.3636 89.8148 10.3491L88.2875 10.3927C88.5784 10.9309 88.7239 11.4982 88.7239 12.0945C88.7239 12.72 88.5857 13.2945 88.3093 13.8182ZM84.7748 10.4145C84.3093 10.4145 83.9093 10.5818 83.5748 10.9164C83.2403 11.2509 83.073 11.6436 83.073 12.0945C83.073 12.5745 83.2403 12.9818 83.5748 13.3164C83.9093 13.6509 84.3093 13.8182 84.7748 13.8182C85.2693 13.8182 85.6839 13.6582 86.0184 13.3382C86.3675 13.0036 86.5421 12.5891 86.5421 12.0945C86.5421 11.6436 86.3675 11.2509 86.0184 10.9164C85.6693 10.5818 85.2548 10.4145 84.7748 10.4145Z" fill="#0F0F0F" fill-opacity="0.8"></path></svg>