<svg xmlns="http://www.w3.org/2000/svg" width="418" height="449" viewBox="0 0 818 549" fill="none"><g opacity="0.04"><mask id="path-1-inside-1_663_1398" fill="white"><path fill-rule="evenodd" clip-rule="evenodd" d="M798.593 236.403C809.156 250.005 815.963 265.358 816.902 282.574C817.634 296.186 817.052 308.445 814.695 316.691C812.123 325.617 809.36 334.506 806.611 343.352L806.611 343.352L806.608 343.361C806.016 345.265 805.425 347.167 804.837 349.066C802.032 358.102 799.224 367.127 796.416 376.149L796.406 376.18L796.396 376.212C791.653 391.453 786.913 406.686 782.199 421.951C774.443 446.988 766.697 471.922 758.848 496.94C756.195 505.429 752.113 513.417 746.773 520.568C742.366 526.569 737.115 531.92 731.177 536.459C724.919 541.195 717.817 544.734 710.239 546.892C704.766 548.379 699.106 549.086 693.432 548.99C692.608 549.003 691.783 548.999 690.958 548.977H266.855H261.991L261.951 548.976C260.916 548.99 259.88 548.998 258.843 549H254.126C254.11 549 254.075 548.998 254.022 548.996H250.511C250.107 548.996 239.441 548.545 238.624 548.488L235.033 548.225L228.498 547.604C226.75 547.416 225.008 547.205 223.272 546.973C190.632 542.72 159.901 532 132.286 516.076C53.3441 471.744 0.000341119 387.161 0.000341119 290.106C-0.000917798 289.332 0.00130989 288.558 0.00701814 287.784C0.00234214 287.141 1.63449e-07 286.498 1.63449e-07 285.854C1.63449e-07 285.166 0.00267727 284.479 0.00802179 283.792C-0.147715 263.156 1.96381 242.46 6.37446 222.117L7.7569 222.583C35.5933 111.266 135.211 27.8477 255.39 22.9172C255.227 22.7537 255.073 22.5804 254.93 22.3983C254.354 21.6797 253.967 20.8315 253.803 19.9295C253.639 19.0274 253.704 18.0994 253.991 17.228C257.804 5.68274 261.54 -5.63086 265.371 -17.0557C275.925 -48.9364 286.522 -80.814 297.164 -112.689C299.079 -118.554 302.196 -123.483 307.332 -127.19C309.884 -129.148 312.823 -130.557 315.961 -131.326C319.098 -132.095 322.364 -132.207 325.548 -131.656C330.778 -130.868 335.106 -128.181 339.134 -124.901C342.204 -122.372 345.298 -119.865 348.391 -117.359L348.392 -117.359C351.486 -114.852 354.579 -112.346 357.65 -109.816L366.1 -103.256C368.447 -101.408 370.801 -99.5834 373.138 -97.7714L373.145 -97.7663C375.621 -95.8466 378.08 -93.9408 380.494 -92.035C384.917 -88.5603 389.348 -85.0856 393.78 -81.7036L395.219 -80.5807C400.975 -76.0904 406.73 -71.6001 412.39 -67.1098C414.606 -65.3726 416.845 -63.6585 419.084 -61.9445C421.323 -60.2302 423.563 -58.5159 425.779 -56.7784C427.112 -55.7297 428.449 -54.6744 429.791 -53.616L429.795 -53.6132C434.427 -49.9592 439.107 -46.2674 443.788 -42.6758C446.905 -40.2171 450.067 -37.8066 453.209 -35.4112L453.213 -35.4086L453.214 -35.4079C454.641 -34.3198 456.064 -33.2348 457.478 -32.1497C460.6 -29.7174 463.693 -27.285 466.787 -24.8526C469.881 -22.4204 472.975 -19.9882 476.096 -17.556C478.261 -15.8651 480.448 -14.1765 482.636 -12.4878C484.824 -10.7991 487.012 -9.11028 489.176 -7.41918C492.447 -4.87099 495.689 -2.32281 498.931 0.225372C501.879 2.54176 504.826 4.85815 507.795 7.17455C510.089 8.96703 512.41 10.7569 514.729 12.5456L514.742 12.5559C516.794 14.1386 518.844 15.7204 520.874 17.3021C524.079 19.8456 527.284 22.3588 530.488 24.872C533.424 27.1746 536.36 29.4772 539.296 31.8032L552.676 41.9956C558.652 46.7298 564.717 51.464 570.793 56.2068L571.295 56.5986C573.459 58.285 575.647 59.9737 577.835 61.6624C580.023 63.3511 582.21 65.0398 584.375 66.7262C587.669 69.2926 590.931 71.859 594.196 74.4267L594.209 74.4373C597.128 76.7332 600.048 79.0302 602.994 81.3292C605.064 82.9421 607.157 84.5551 609.251 86.168C611.535 87.9278 613.819 89.6877 616.073 91.4475L630.871 103.076C633.033 104.761 635.218 106.448 637.404 108.135L637.41 108.14C639.598 109.829 641.786 111.517 643.95 113.204C646.136 114.947 648.358 116.687 650.585 118.43C653.045 120.355 655.511 122.285 657.94 124.23L658.976 125.025L658.987 125.034C663.164 128.24 667.342 131.447 671.423 134.654C675.286 137.632 679.12 140.649 682.944 143.656L682.946 143.658L682.949 143.66C685.369 145.564 687.786 147.465 690.202 149.35C692.366 151.041 694.53 152.704 696.694 154.367C698.858 156.03 701.023 157.694 703.188 159.385C704.859 160.697 706.534 162.016 708.213 163.339C712.759 166.921 717.338 170.528 721.966 174.08C724.715 176.27 727.499 178.42 730.298 180.581L730.301 180.583C731.813 181.752 733.33 182.923 734.848 184.106C737.92 186.454 740.965 188.848 744.009 191.243C747.152 193.715 750.295 196.188 753.468 198.607C755.469 200.197 757.49 201.752 759.513 203.309L759.517 203.312C761.868 205.122 764.221 206.933 766.547 208.8C769.131 210.805 771.709 212.82 774.282 214.833L774.287 214.837C777.658 217.473 781.022 220.103 784.387 222.698C789.701 226.643 794.476 231.249 798.593 236.403ZM294.208 387.208C286.705 389.188 278.995 390.354 271.217 390.678L272.4 386.822C260.967 388.892 249.305 388.894 237.915 386.853C227.18 383.875 216.927 379.234 207.557 373.05C190.062 361.505 176.43 345.1 168.382 325.91C160.335 306.719 158.234 285.605 162.346 265.236C166.258 245.852 175.63 227.972 189.355 213.634L190.246 212.85L191.211 212.002L192.122 211.199L192.96 210.497L193.251 210.251C193.771 209.823 194.299 209.403 194.818 208.993L195 208.847L195.829 208.209C197.845 206.647 199.918 205.167 202.049 203.769L202.96 203.149L203.151 203.031L204.117 202.42L205.128 201.8C205.929 201.308 206.73 200.833 207.55 200.368C207.832 200.204 208.115 200.04 208.406 199.885L209.381 199.347L210.191 198.91L210.802 198.591H210.856L212.596 197.679C213.203 197.369 213.81 197.065 214.417 196.767L215.219 196.393L215.301 196.348L217.122 195.518L218.224 195.044L218.989 194.716L219.7 194.424L220.783 193.987H220.874L221.958 193.567C222.35 193.412 222.751 193.266 223.142 193.13L224.463 192.674L225.2 192.419L225.801 192.209L226.776 191.89L227.45 191.671L228.224 191.425L229.135 191.142L230.045 190.887L230.738 190.695C231.175 190.568 231.649 190.44 232.058 190.331L232.924 190.094C234.66 189.65 236.415 189.249 238.188 188.89L239.153 188.699C240.064 188.526 240.974 188.361 241.885 188.206C242.637 188.078 243.278 187.988 243.945 187.893C244.086 187.873 244.227 187.853 244.372 187.833L245.127 187.732L246.038 187.614L246.949 187.504L248.251 187.359L249.408 187.249L251.029 187.122L252.177 187.04L253.434 186.967L254.599 186.912H255.191H255.801H256.503H258.807C286.157 186.922 312.386 197.798 331.732 217.152C351.078 236.506 361.959 262.755 361.985 290.134V291.474V292.714V294.282L361.931 295.412C361.931 295.742 361.907 296.071 361.884 296.396L361.883 296.397C361.877 296.483 361.871 296.568 361.866 296.652C361.863 296.692 361.86 296.731 361.858 296.771C361.846 296.969 361.834 297.135 361.822 297.29C361.817 297.36 361.812 297.429 361.807 297.497C361.799 297.616 361.791 297.735 361.785 297.865C361.785 298.262 361.738 298.66 361.692 299.057C361.673 299.216 361.655 299.375 361.639 299.533C361.639 299.787 361.607 300.045 361.575 300.304L361.575 300.304C361.559 300.436 361.542 300.568 361.53 300.7C361.448 301.537 361.348 302.365 361.248 303.193L361.248 303.194L361.248 303.198C361.248 303.372 361.216 303.541 361.184 303.709C361.171 303.779 361.158 303.849 361.147 303.919L361.065 304.584C360.956 305.359 360.838 306.134 360.71 306.9C360.71 307.033 360.681 307.166 360.651 307.302L360.65 307.307C360.644 307.337 360.637 307.368 360.631 307.398C360.627 307.417 360.623 307.437 360.619 307.456L360.618 307.462C360.555 307.843 360.491 308.224 360.419 308.605C360.346 308.988 360.3 309.27 360.237 309.608V309.735C360.215 309.842 360.195 309.948 360.175 310.053C360.135 310.259 360.097 310.459 360.054 310.647C359.872 311.559 359.69 312.406 359.49 313.273C359.465 313.371 359.443 313.469 359.421 313.566C359.402 313.649 359.383 313.731 359.362 313.81C359.18 314.594 358.989 315.379 358.779 316.154C358.743 316.289 358.71 316.427 358.676 316.564L358.675 316.569C358.64 316.708 358.606 316.847 358.57 316.983C358.424 317.521 358.279 318.05 358.124 318.579L358.084 318.717C358.024 318.929 357.963 319.144 357.896 319.354C357.696 320.046 357.486 320.739 357.268 321.423L356.749 323.019C356.721 323.092 356.696 323.167 356.671 323.242L356.67 323.245C356.645 323.319 356.621 323.393 356.594 323.465L356.257 324.45L355.765 325.817C355.702 325.984 355.641 326.147 355.58 326.311C355.552 326.386 355.524 326.461 355.495 326.535C355.458 326.63 355.421 326.725 355.382 326.82C355.306 327.009 355.244 327.178 355.183 327.343C355.135 327.473 355.088 327.6 355.036 327.732L354.463 329.163C354.417 329.28 354.37 329.395 354.322 329.51C354.3 329.563 354.279 329.617 354.257 329.67C354.242 329.706 354.228 329.742 354.213 329.778C354.201 329.809 354.188 329.841 354.176 329.872C354.15 329.939 354.124 330.006 354.098 330.075V330.139L353.807 330.823L353.47 331.598C353.315 331.953 353.16 332.3 352.996 332.646L352.696 333.321L352.441 333.868C352.085 334.624 351.73 335.372 351.357 336.11C351.184 336.466 351.011 336.822 350.829 337.168L350.255 338.28L349.69 339.338L349.071 340.459L348.47 341.517C348.288 341.836 348.096 342.155 347.905 342.428C347.871 342.501 347.831 342.571 347.787 342.638C347.605 342.957 347.413 343.267 347.222 343.55C347.129 343.708 347.034 343.864 346.938 344.019C346.874 344.123 346.81 344.226 346.745 344.33L346.744 344.331C346.619 344.532 346.493 344.735 346.366 344.945L345.774 345.856L345.428 346.385C345.191 346.759 344.945 347.133 344.69 347.497C344.537 347.716 344.384 347.945 344.231 348.174C344.129 348.326 344.027 348.478 343.925 348.628L343.014 349.859C342.869 350.078 342.714 350.287 342.559 350.497L342.167 351.035C342.104 351.125 342.038 351.215 341.972 351.304C341.878 351.432 341.781 351.559 341.685 351.682C341.156 352.402 340.61 353.114 340.054 353.825L339.472 354.554L338.752 355.466C338.443 355.849 338.133 356.222 337.841 356.596C337.55 356.97 337.259 357.289 336.931 357.626L336.521 358.1L335.756 358.957L335.555 359.185C335.228 359.559 334.891 359.924 334.554 360.289C334.361 360.497 334.145 360.726 333.923 360.958C333.828 361.057 333.731 361.157 333.635 361.257C333.564 361.33 333.494 361.402 333.424 361.474C333.271 361.631 333.118 361.79 332.966 361.949C332.74 362.185 332.515 362.421 332.286 362.65L332.261 362.675C332.099 362.837 331.936 363 331.772 363.164C331.556 363.379 331.338 363.595 331.12 363.808L329.945 364.947C329.572 365.303 329.198 365.658 328.816 366.005L328.661 366.142C327.887 366.862 327.095 367.564 326.302 368.257L325.045 369.314C324.663 369.643 324.271 369.962 323.88 370.281L322.322 371.521L321.339 372.277L321.047 372.496L319.882 373.408C319.472 373.718 319.053 374.019 318.634 374.319L318.388 374.493C317.996 374.775 317.605 375.049 317.204 375.313L316.029 376.106L315.555 376.426L314.463 377.137L313.169 377.948L312.951 378.085L311.694 378.851C306.118 382.194 300.261 384.988 294.208 387.208ZM644.917 376.03C648.044 365.3 651.161 354.579 654.072 343.757C655.49 338.586 654.175 333.926 649.809 330.405C648.303 329.14 646.734 327.935 645.154 326.722L645.153 326.721L645.152 326.721C643.885 325.748 642.612 324.77 641.358 323.752C638.945 321.866 636.529 319.955 634.113 318.043C631.698 316.132 629.283 314.222 626.871 312.336C625.914 311.597 624.952 310.856 623.987 310.113L623.982 310.109L623.977 310.105L623.974 310.103C620.579 307.489 617.149 304.847 613.782 302.144C610.386 299.447 606.943 296.754 603.498 294.06L603.49 294.053L603.479 294.045C600.835 291.976 598.19 289.908 595.567 287.837C591.144 284.363 586.619 280.888 582.093 277.413C577.361 273.605 572.732 269.964 567.896 266.192C566.307 264.94 564.685 263.674 563.054 262.401C560.28 260.236 557.476 258.049 554.751 255.861C551.55 253.378 548.352 250.868 545.154 248.358L545.137 248.345C542.205 246.044 539.273 243.742 536.339 241.462C535.979 241.176 535.621 240.891 535.265 240.608C534.944 240.353 534.624 240.099 534.305 239.846C533.891 239.518 533.478 239.191 533.065 238.864L533.056 238.857L533.053 238.854C531.572 237.68 530.098 236.512 528.592 235.309C528.653 235.911 528.753 236.508 528.893 237.098C531.968 253.138 533.518 269.427 533.522 285.753C533.534 296.646 532.825 307.529 531.4 318.331C528.67 341.228 522.782 363.649 513.898 384.971H632.946C639.086 385.064 643.312 381.487 644.917 376.03Z"></path></mask><path d="M816.902 282.574L820.896 282.359L820.896 282.357L816.902 282.574ZM798.593 236.403L801.752 233.949L801.735 233.927L801.718 233.906L798.593 236.403ZM814.695 316.691L818.539 317.799L818.541 317.79L814.695 316.691ZM806.611 343.352L802.791 342.164L802.742 342.322L802.706 342.484L806.611 343.352ZM806.611 343.352L810.432 344.534L810.48 344.379L810.515 344.22L806.611 343.352ZM806.608 343.361L810.428 344.549L810.429 344.543L806.608 343.361ZM804.837 349.066L808.657 350.252L808.657 350.25L804.837 349.066ZM796.416 376.149L800.234 377.341L800.235 377.337L796.416 376.149ZM796.396 376.212L792.578 375.02L792.577 375.024L796.396 376.212ZM782.199 421.951L786.02 423.135L786.021 423.132L782.199 421.951ZM758.848 496.94L755.031 495.742L755.03 495.747L758.848 496.94ZM746.773 520.568L743.568 518.174L743.558 518.187L743.549 518.2L746.773 520.568ZM731.177 536.459L733.591 539.648L733.599 539.643L733.606 539.637L731.177 536.459ZM710.239 546.892L711.288 550.752L711.311 550.746L711.335 550.739L710.239 546.892ZM693.432 548.99L693.5 544.991L693.434 544.99L693.369 544.991L693.432 548.99ZM690.958 548.977L691.064 544.978L691.011 544.977H690.958V548.977ZM261.991 548.977L261.868 552.975L261.93 552.977H261.991V548.977ZM261.951 548.976L262.074 544.978L261.985 544.975L261.896 544.976L261.951 548.976ZM258.843 549V553H258.85L258.843 549ZM254.126 549L254.018 552.999L254.072 553H254.126V549ZM254.022 548.996L254.166 544.999L254.094 544.996H254.022V548.996ZM238.624 548.488L238.332 552.478L238.34 552.478L238.349 552.479L238.624 548.488ZM235.033 548.225L234.655 552.207L234.698 552.211L234.741 552.214L235.033 548.225ZM228.498 547.604L228.069 551.581L228.094 551.584L228.119 551.586L228.498 547.604ZM223.272 546.973L223.803 543.009L223.789 543.007L223.272 546.973ZM132.286 516.076L134.284 512.61L134.264 512.599L134.244 512.588L132.286 516.076ZM0.000341119 290.106H4.00035L4.00034 290.1L0.000341119 290.106ZM0.00701814 287.784L4.00691 287.813L4.00713 287.784L4.00691 287.755L0.00701814 287.784ZM0.00802179 283.792L4.0079 283.823L4.00814 283.792L4.00791 283.761L0.00802179 283.792ZM6.37446 222.117L7.65135 218.326L3.41293 216.899L2.46528 221.27L6.37446 222.117ZM7.7569 222.583L6.48001 226.373L10.5863 227.757L11.6374 223.553L7.7569 222.583ZM255.39 22.9172L255.554 26.9139L264.686 26.5392L258.215 20.0852L255.39 22.9172ZM254.93 22.3983L258.08 19.9331L258.066 19.9146L258.051 19.8963L254.93 22.3983ZM253.803 19.9295L249.867 20.6442L249.867 20.6442L253.803 19.9295ZM253.991 17.228L250.193 15.9738L250.193 15.9751L253.991 17.228ZM265.371 -17.0557L269.164 -15.784L269.166 -15.7913L269.169 -15.7986L265.371 -17.0557ZM297.164 -112.689L300.958 -111.422L300.962 -111.434L300.966 -111.447L297.164 -112.689ZM307.332 -127.19L309.673 -123.946L309.72 -123.98L309.767 -124.016L307.332 -127.19ZM315.961 -131.326L316.913 -127.441L315.961 -131.326ZM325.548 -131.656L324.865 -127.715L324.908 -127.707L324.952 -127.7L325.548 -131.656ZM339.134 -124.901L341.677 -127.988L341.669 -127.995L341.66 -128.003L339.134 -124.901ZM348.391 -117.359L345.873 -114.251L345.938 -114.199L346.004 -114.15L348.391 -117.359ZM348.392 -117.359L350.91 -120.467L350.845 -120.519L350.779 -120.568L348.392 -117.359ZM357.65 -109.816L355.106 -106.729L355.151 -106.692L355.197 -106.657L357.65 -109.816ZM366.1 -103.256L368.575 -106.398L368.564 -106.407L368.553 -106.416L366.1 -103.256ZM373.138 -97.7714L375.593 -100.929L375.589 -100.933L373.138 -97.7714ZM373.145 -97.7663L370.69 -94.6083L370.694 -94.6048L373.145 -97.7663ZM380.494 -92.035L378.016 -88.8955L378.023 -88.8897L380.494 -92.035ZM393.78 -81.7036L396.241 -84.8573L396.224 -84.8704L396.207 -84.8834L393.78 -81.7036ZM395.219 -80.5807L392.759 -77.427L392.759 -77.4269L395.219 -80.5807ZM412.39 -67.1098L409.904 -63.9763L409.913 -63.9691L409.922 -63.962L412.39 -67.1098ZM419.084 -61.9445L416.653 -58.7682V-58.7682L419.084 -61.9445ZM425.779 -56.7784L428.253 -59.9217L428.247 -59.9262L425.779 -56.7784ZM429.791 -53.616L427.314 -50.4754L427.315 -50.4749L429.791 -53.616ZM429.795 -53.6132L432.272 -56.7537L432.271 -56.7542L429.795 -53.6132ZM443.788 -42.6758L446.265 -45.8165L446.244 -45.833L446.223 -45.8491L443.788 -42.6758ZM453.209 -35.4112L450.784 -32.2302L450.79 -32.2257L450.796 -32.2213L453.209 -35.4112ZM453.213 -35.4086L450.799 -32.2187L450.806 -32.2136L450.813 -32.2086L453.213 -35.4086ZM453.214 -35.4079L455.639 -38.589L455.626 -38.5985L455.614 -38.6079L453.214 -35.4079ZM457.478 -32.1497L459.936 -35.3052L459.925 -35.3139L459.913 -35.3225L457.478 -32.1497ZM466.787 -24.8526L464.315 -21.708L464.315 -21.708L466.787 -24.8526ZM476.096 -17.556L478.559 -20.708L478.555 -20.7114L476.096 -17.556ZM482.636 -12.4878L480.192 -9.32141V-9.3214L482.636 -12.4878ZM489.176 -7.41918L486.713 -4.26723L486.718 -4.26378L489.176 -7.41918ZM498.931 0.225372L496.46 3.37035L496.46 3.37036L498.931 0.225372ZM507.795 7.17455L510.258 4.0226L510.256 4.02095L507.795 7.17455ZM514.729 12.5456L517.177 9.38234L517.172 9.37828L514.729 12.5456ZM514.742 12.5559L512.294 15.7192L512.299 15.7232L514.742 12.5559ZM520.874 17.3021L523.361 14.169L523.347 14.1579L523.333 14.1469L520.874 17.3021ZM530.488 24.872L528.02 28.0195L530.488 24.872ZM539.296 31.8032L536.812 34.9386L536.842 34.9621L536.872 34.9851L539.296 31.8032ZM552.676 41.9956L555.16 38.8602L555.13 38.8367L555.1 38.8137L552.676 41.9956ZM570.793 56.2068L568.332 59.3599L568.332 59.36L570.793 56.2068ZM571.295 56.5986L568.834 59.7518L568.837 59.7538L571.295 56.5986ZM577.835 61.6624L575.391 64.8288V64.8288L577.835 61.6624ZM584.375 66.7262L581.916 69.8814L581.916 69.8816L584.375 66.7262ZM594.196 74.4267L596.678 71.2897L596.669 71.2828L594.196 74.4267ZM594.209 74.4373L591.727 77.5744L591.736 77.5813L594.209 74.4373ZM602.994 81.3292L600.532 84.4823L600.535 84.4844L602.994 81.3292ZM609.251 86.168L606.81 89.3367L606.81 89.3367L609.251 86.168ZM616.073 91.4475L618.545 88.3024L618.535 88.2949L616.073 91.4475ZM630.871 103.076L628.399 106.221L628.406 106.226L628.412 106.231L630.871 103.076ZM637.404 108.135L634.96 111.301L634.967 111.307L634.975 111.313L637.404 108.135ZM637.41 108.14L639.854 104.974L639.847 104.968L639.839 104.962L637.41 108.14ZM643.95 113.204L646.444 110.077L646.426 110.062L646.409 110.049L643.95 113.204ZM650.585 118.43L653.051 115.28L653.051 115.28L650.585 118.43ZM657.94 124.23L655.44 127.353L655.472 127.378L655.505 127.403L657.94 124.23ZM658.976 125.025L656.54 128.198L656.55 128.206L658.976 125.025ZM658.987 125.034L661.423 121.861L661.413 121.853L658.987 125.034ZM671.423 134.654L668.952 137.799L668.966 137.811L668.981 137.822L671.423 134.654ZM682.944 143.656L685.505 140.583L685.462 140.547L685.417 140.512L682.944 143.656ZM682.946 143.658L680.386 146.731L680.446 146.781L680.508 146.829L682.946 143.658ZM682.949 143.66L685.422 140.516L685.405 140.503L685.388 140.489L682.949 143.66ZM690.202 149.35L692.665 146.198L692.663 146.196L690.202 149.35ZM696.694 154.367L699.131 151.195V151.195L696.694 154.367ZM703.188 159.385L705.657 156.238L705.65 156.233L703.188 159.385ZM708.213 163.339L705.737 166.481L708.213 163.339ZM721.966 174.08L724.458 170.952L724.43 170.929L724.402 170.907L721.966 174.08ZM730.298 180.581L727.853 183.747L727.864 183.756L730.298 180.581ZM730.301 180.583L732.746 177.418L732.734 177.409L730.301 180.583ZM734.848 184.106L732.39 187.261L732.405 187.273L732.419 187.284L734.848 184.106ZM744.009 191.243L746.482 188.099L746.482 188.099L744.009 191.243ZM753.468 198.607L755.955 195.475L755.925 195.451L755.893 195.427L753.468 198.607ZM759.513 203.309L757.073 206.479L757.093 206.494L757.113 206.509L759.513 203.309ZM759.517 203.312L761.957 200.142L761.937 200.127L761.917 200.112L759.517 203.312ZM766.547 208.8L764.043 211.919L764.069 211.94L764.095 211.96L766.547 208.8ZM774.282 214.833L771.818 217.984L771.832 217.994L771.846 218.005L774.282 214.833ZM774.287 214.837L776.751 211.686L776.737 211.675L776.723 211.664L774.287 214.837ZM784.387 222.698L781.943 225.866L781.973 225.888L782.002 225.91L784.387 222.698ZM271.217 390.678L267.393 389.505L265.735 394.91L271.384 394.675L271.217 390.678ZM294.208 387.208L295.228 391.076L295.409 391.028L295.585 390.964L294.208 387.208ZM272.4 386.822L276.224 387.995L278.15 381.717L271.687 382.886L272.4 386.822ZM237.915 386.853L236.846 390.708L237.026 390.758L237.21 390.79L237.915 386.853ZM207.557 373.05L205.353 376.389L207.557 373.05ZM168.382 325.91L172.071 324.363L168.382 325.91ZM162.346 265.236L166.266 266.027L162.346 265.236ZM189.355 213.634L186.711 210.633L186.583 210.745L186.466 210.868L189.355 213.634ZM190.246 212.85L187.606 209.844L187.602 209.848L190.246 212.85ZM191.211 212.002L193.851 215.007L193.855 215.003L191.211 212.002ZM192.122 211.199L189.553 208.133L189.515 208.165L189.478 208.198L192.122 211.199ZM192.96 210.497L195.529 213.563L195.535 213.558L195.541 213.554L192.96 210.497ZM193.251 210.251L190.705 207.166L190.688 207.181L190.671 207.195L193.251 210.251ZM194.818 208.993L197.298 212.131L197.308 212.123L197.319 212.115L194.818 208.993ZM195 208.847L192.56 205.678L192.529 205.701L192.499 205.725L195 208.847ZM195.829 208.209L198.269 211.379L198.279 211.371L195.829 208.209ZM202.049 203.769L204.243 207.114L204.272 207.095L204.3 207.076L202.049 203.769ZM202.96 203.149L200.855 199.748L200.781 199.794L200.709 199.843L202.96 203.149ZM203.151 203.031L205.257 206.432L205.274 206.421L205.29 206.411L203.151 203.031ZM204.117 202.42L202.026 199.01L202.001 199.025L201.978 199.04L204.117 202.42ZM205.128 201.8L207.219 205.21L207.221 205.208L205.128 201.8ZM207.55 200.368L209.524 203.848L209.542 203.837L209.56 203.827L207.55 200.368ZM208.406 199.885L210.284 203.417L210.312 203.402L210.34 203.387L208.406 199.885ZM209.381 199.347L207.481 195.827L207.464 195.836L207.447 195.846L209.381 199.347ZM210.191 198.91L208.338 195.365L208.314 195.377L208.291 195.39L210.191 198.91ZM210.802 198.591V194.591H209.819L208.948 195.046L210.802 198.591ZM210.856 198.591V202.591H211.841L212.713 202.133L210.856 198.591ZM212.596 197.679L210.777 194.116L210.758 194.126L210.739 194.136L212.596 197.679ZM214.417 196.767L212.727 193.142L212.691 193.159L212.656 193.176L214.417 196.767ZM215.219 196.393L216.909 200.019L217.039 199.958L217.165 199.888L215.219 196.393ZM215.301 196.348L213.643 192.708L213.496 192.775L213.355 192.853L215.301 196.348ZM217.122 195.518L215.541 191.844L215.502 191.861L215.464 191.878L217.122 195.518ZM218.224 195.044L216.647 191.368L216.643 191.37L218.224 195.044ZM218.989 194.716L217.47 191.016L217.441 191.028L217.412 191.04L218.989 194.716ZM219.7 194.424L218.202 190.715L218.191 190.72L218.18 190.724L219.7 194.424ZM220.783 193.987V189.987H220.006L219.286 190.278L220.783 193.987ZM220.874 193.987V197.987H221.621L222.318 197.717L220.874 193.987ZM221.958 193.567L223.402 197.298L223.416 197.292L223.43 197.287L221.958 193.567ZM223.142 193.13L221.837 189.349L221.83 189.351L221.823 189.353L223.142 193.13ZM224.463 192.674L225.768 196.455L225.771 196.454L224.463 192.674ZM225.2 192.419L226.508 196.199L226.518 196.195L225.2 192.419ZM225.801 192.209L224.557 188.407L224.52 188.419L224.484 188.432L225.801 192.209ZM226.776 191.89L225.541 188.085L225.531 188.088L226.776 191.89ZM227.45 191.671L226.238 187.859L226.226 187.863L226.215 187.866L227.45 191.671ZM228.224 191.425L227.038 187.604L227.025 187.609L227.012 187.613L228.224 191.425ZM229.135 191.142L228.055 187.291L228.002 187.305L227.949 187.322L229.135 191.142ZM230.045 190.887L228.979 187.032L228.966 187.035L230.045 190.887ZM230.738 190.695L231.804 194.551L231.831 194.543L231.859 194.535L230.738 190.695ZM232.058 190.331L233.09 194.195L233.103 194.192L233.115 194.189L232.058 190.331ZM232.924 190.094L231.933 186.218L231.9 186.227L231.867 186.236L232.924 190.094ZM238.188 188.89L237.41 184.967L237.402 184.968L237.395 184.97L238.188 188.89ZM239.153 188.699L238.405 184.769L238.39 184.772L238.375 184.775L239.153 188.699ZM241.885 188.206L241.214 184.263L241.214 184.263L241.885 188.206ZM243.945 187.893L244.506 191.854H244.506L243.945 187.893ZM244.372 187.833L243.845 183.867L243.825 183.87L243.805 183.873L244.372 187.833ZM245.127 187.732L244.611 183.766L244.601 183.767L245.127 187.732ZM246.038 187.614L245.561 183.642L245.542 183.645L245.522 183.647L246.038 187.614ZM246.949 187.504L246.504 183.529L246.488 183.531L246.472 183.533L246.949 187.504ZM248.251 187.359L247.875 183.376L247.841 183.38L247.806 183.383L248.251 187.359ZM249.408 187.249L249.094 183.262L249.063 183.264L249.031 183.267L249.408 187.249ZM251.029 187.122L250.744 183.132L250.729 183.133L250.715 183.134L251.029 187.122ZM252.177 187.04L251.945 183.046L251.918 183.048L251.891 183.05L252.177 187.04ZM253.434 186.967L253.246 182.971L253.224 182.972L253.202 182.973L253.434 186.967ZM254.599 186.912V182.912H254.506L254.412 182.916L254.599 186.912ZM258.807 186.912L258.808 182.912H258.807V186.912ZM331.732 217.152L334.561 214.324L331.732 217.152ZM361.985 290.134H365.985V290.13L361.985 290.134ZM361.985 294.282L365.981 294.475L365.985 294.379V294.282H361.985ZM361.931 295.412L357.935 295.219L357.931 295.316V295.412H361.931ZM361.884 296.396L365.872 296.703L365.872 296.693L365.873 296.683L361.884 296.396ZM361.883 296.397L357.895 296.091L357.894 296.1L357.894 296.11L361.883 296.397ZM361.866 296.652L357.874 296.385L361.866 296.652ZM361.858 296.771L365.85 297.015L365.85 297.015L361.858 296.771ZM361.822 297.29L357.833 296.998L357.833 296.998L361.822 297.29ZM361.807 297.497L357.817 297.217L357.817 297.218L361.807 297.497ZM361.785 297.865L357.79 297.665L357.785 297.765V297.865H361.785ZM361.692 299.057L357.719 298.593V298.593L361.692 299.057ZM361.639 299.533L357.658 299.142L357.639 299.337V299.533H361.639ZM361.575 300.304L365.497 301.088L365.526 300.943L365.545 300.797L361.575 300.304ZM361.575 300.304L357.653 299.52L357.624 299.664L357.606 299.811L361.575 300.304ZM361.53 300.7L365.511 301.089L365.512 301.08L365.513 301.071L361.53 300.7ZM361.248 303.193L365.171 303.978L365.201 303.826L365.219 303.673L361.248 303.193ZM361.248 303.194L357.326 302.409L357.297 302.553L357.279 302.698L361.248 303.194ZM361.248 303.198L357.278 302.702L357.248 302.949V303.198H361.248ZM361.184 303.709L365.116 304.446V304.446L361.184 303.709ZM361.147 303.919L357.194 303.31L357.185 303.37L357.177 303.429L361.147 303.919ZM361.065 304.584L365.026 305.143L365.031 305.108L365.035 305.073L361.065 304.584ZM360.71 306.9L356.765 306.243L356.71 306.569V306.9H360.71ZM360.651 307.302L364.553 308.186L364.556 308.172L364.559 308.158L360.651 307.302ZM360.65 307.307L356.749 306.424L356.745 306.439L356.742 306.454L360.65 307.307ZM360.631 307.398L364.547 308.214L364.547 308.21L360.631 307.398ZM360.619 307.456L356.69 306.707L356.684 306.739L356.678 306.771L360.619 307.456ZM360.618 307.462L356.677 306.777L356.675 306.791L356.672 306.805L360.618 307.462ZM360.419 308.605L356.489 307.857L356.489 307.857L360.419 308.605ZM360.237 309.608L356.306 308.865L356.237 309.233V309.608H360.237ZM360.237 309.735L364.159 310.519L364.237 310.131V309.735H360.237ZM360.175 310.053L364.103 310.808L364.103 310.808L360.175 310.053ZM360.054 310.647L356.152 309.767L356.142 309.815L356.132 309.863L360.054 310.647ZM359.49 313.273L363.371 314.241L363.379 314.208L363.387 314.174L359.49 313.273ZM359.421 313.566L363.321 314.456L363.321 314.456L359.421 313.566ZM359.362 313.81L355.494 312.793L355.479 312.849L355.466 312.905L359.362 313.81ZM358.779 316.154L354.918 315.11L354.916 315.117L354.914 315.124L358.779 316.154ZM358.676 316.564L362.556 317.535L362.558 317.527L362.56 317.519L358.676 316.564ZM358.675 316.569L354.794 315.599L354.792 315.607L354.79 315.615L358.675 316.569ZM358.57 316.983L362.431 318.029L362.433 318.021L362.435 318.013L358.57 316.983ZM358.124 318.579L354.285 317.455L354.28 317.47L354.276 317.485L358.124 318.579ZM358.084 318.717L354.237 317.623L354.236 317.626L358.084 318.717ZM357.896 319.354L354.088 318.13L354.07 318.186L354.053 318.242L357.896 319.354ZM357.268 321.423L361.071 322.661L361.075 322.651L361.078 322.641L357.268 321.423ZM356.749 323.019L360.494 324.421L360.525 324.339L360.552 324.256L356.749 323.019ZM356.671 323.242L360.466 324.507L360.466 324.505L356.671 323.242ZM356.67 323.245L352.875 321.98L352.875 321.981L356.67 323.245ZM356.594 323.465L352.848 322.063L352.828 322.116L352.809 322.17L356.594 323.465ZM356.257 324.45L360.021 325.804L360.031 325.775L360.041 325.746L356.257 324.45ZM355.765 325.817L359.506 327.232L359.518 327.202L359.529 327.171L355.765 325.817ZM355.58 326.311L359.324 327.719L359.324 327.719L355.58 326.311ZM355.495 326.535L359.228 327.973L359.228 327.972L355.495 326.535ZM355.382 326.82L351.675 325.318L351.675 325.319L355.382 326.82ZM355.183 327.343L358.937 328.725L358.937 328.725L355.183 327.343ZM355.036 327.732L358.749 329.221L358.754 329.209L358.759 329.197L355.036 327.732ZM354.463 329.163L350.75 327.675L350.745 327.687L350.74 327.698L354.463 329.163ZM354.322 329.51L358.023 331.028L358.023 331.027L354.322 329.51ZM354.257 329.67L350.551 328.164L350.55 328.166L354.257 329.67ZM354.213 329.778L357.926 331.268L357.927 331.265L354.213 329.778ZM354.176 329.872L357.899 331.336L357.899 331.335L354.176 329.872ZM354.098 330.075L350.348 328.684L350.098 329.357V330.075H354.098ZM354.098 330.139L357.778 331.708L358.098 330.956V330.139H354.098ZM353.807 330.823L357.475 332.418L357.481 332.405L357.486 332.391L353.807 330.823ZM353.47 331.598L357.137 333.194L357.138 333.193L353.47 331.598ZM352.996 332.646L349.38 330.935L349.361 330.977L349.342 331.019L352.996 332.646ZM352.696 333.321L356.321 335.011L356.336 334.98L356.35 334.948L352.696 333.321ZM352.441 333.868L356.062 335.567L356.066 335.558L352.441 333.868ZM351.357 336.11L347.787 334.305L347.774 334.333L347.76 334.36L351.357 336.11ZM350.829 337.168L347.288 335.306L347.281 335.32L347.274 335.334L350.829 337.168ZM350.255 338.28L353.783 340.165L353.797 340.139L353.81 340.114L350.255 338.28ZM349.69 339.338L353.192 341.271L353.205 341.247L353.219 341.222L349.69 339.338ZM349.071 340.459L352.548 342.436L352.561 342.415L352.573 342.393L349.071 340.459ZM348.47 341.517L351.944 343.5L351.947 343.494L348.47 341.517ZM347.905 342.428L344.627 340.136L344.428 340.421L344.281 340.736L347.905 342.428ZM347.787 342.638L344.466 340.408L344.385 340.529L344.313 340.655L347.787 342.638ZM347.222 343.55L343.909 341.308L343.838 341.413L343.774 341.523L347.222 343.55ZM346.938 344.019L350.341 346.122L350.341 346.121L346.938 344.019ZM346.745 344.33L350.137 346.45L350.14 346.446L346.745 344.33ZM346.744 344.331L343.352 342.211L343.35 342.215L346.744 344.331ZM346.366 344.945L349.721 347.123L349.757 347.068L349.791 347.01L346.366 344.945ZM345.774 345.856L349.121 348.047L349.129 348.035L345.774 345.856ZM345.428 346.385L342.081 344.195L342.065 344.22L342.049 344.245L345.428 346.385ZM344.69 347.497L341.412 345.205L341.412 345.205L344.69 347.497ZM344.231 348.174L340.907 345.949L340.907 345.949L344.231 348.174ZM343.925 348.628L347.141 351.007L347.186 350.946L347.229 350.882L343.925 348.628ZM343.014 349.859L339.799 347.479L339.74 347.559L339.685 347.642L343.014 349.859ZM342.559 350.497L339.341 348.121L339.333 348.132L339.325 348.143L342.559 350.497ZM342.167 351.035L338.934 348.681L338.918 348.703L338.902 348.725L342.167 351.035ZM341.972 351.304L345.187 353.684L345.188 353.684L341.972 351.304ZM341.685 351.682L338.534 349.218L338.496 349.267L338.459 349.316L341.685 351.682ZM340.054 353.825L343.179 356.322L343.193 356.304L343.207 356.287L340.054 353.825ZM339.472 354.554L336.347 352.057L336.339 352.066L336.332 352.076L339.472 354.554ZM338.752 355.466L341.862 357.981L341.877 357.962L341.892 357.944L338.752 355.466ZM337.841 356.596L340.996 359.056L340.996 359.055L337.841 356.596ZM336.931 357.626L334.062 354.839L333.981 354.922L333.904 355.011L336.931 357.626ZM336.521 358.1L339.505 360.764L339.526 360.741L339.547 360.716L336.521 358.1ZM335.756 358.957L332.772 356.294L332.762 356.305L332.751 356.317L335.756 358.957ZM335.555 359.185L332.551 356.545L332.548 356.548L335.555 359.185ZM334.554 360.289L337.491 363.003L337.491 363.003L334.554 360.289ZM333.923 360.958L331.034 358.191L331.034 358.192L333.923 360.958ZM333.635 361.257L330.761 358.474L330.761 358.475L333.635 361.257ZM333.424 361.474L330.561 358.68L330.561 358.68L333.424 361.474ZM332.966 361.949L335.856 364.715L332.966 361.949ZM332.286 362.65L329.456 359.823L329.454 359.825L332.286 362.65ZM332.261 362.675L335.091 365.501L335.093 365.499L332.261 362.675ZM331.772 363.164L334.595 365.997L334.595 365.997L331.772 363.164ZM331.12 363.808L333.905 366.679L333.911 366.673L333.917 366.668L331.12 363.808ZM329.945 364.947L332.704 367.844L332.717 367.831L332.73 367.819L329.945 364.947ZM328.816 366.005L331.463 369.004L331.482 368.987L331.501 368.97L328.816 366.005ZM328.661 366.142L326.014 363.143L325.975 363.177L325.936 363.213L328.661 366.142ZM326.302 368.257L328.878 371.318L328.907 371.293L328.935 371.268L326.302 368.257ZM325.045 369.314L322.47 366.254L322.455 366.266L322.441 366.279L325.045 369.314ZM323.88 370.281L326.371 373.41L326.389 373.396L326.406 373.382L323.88 370.281ZM322.322 371.521L324.762 374.691L324.788 374.671L324.814 374.65L322.322 371.521ZM321.339 372.277L323.74 375.476L323.759 375.462L323.778 375.447L321.339 372.277ZM321.047 372.496L318.646 369.297L318.614 369.321L318.583 369.345L321.047 372.496ZM319.882 373.408L322.294 376.598L322.32 376.579L322.346 376.559L319.882 373.408ZM318.634 374.319L320.937 377.59L320.952 377.579L320.967 377.568L318.634 374.319ZM318.388 374.493L316.084 371.223L316.066 371.236L316.047 371.249L318.388 374.493ZM317.204 375.313L315.001 371.975L314.983 371.986L314.966 371.998L317.204 375.313ZM316.029 376.106L318.264 379.424L318.267 379.422L316.029 376.106ZM315.555 376.426L317.737 379.778L317.764 379.761L317.791 379.743L315.555 376.426ZM314.463 377.137L316.588 380.525L316.616 380.507L316.644 380.489L314.463 377.137ZM313.169 377.948L315.291 381.339L315.295 381.336L313.169 377.948ZM312.951 378.085L315.032 381.5L315.052 381.488L315.072 381.476L312.951 378.085ZM311.694 378.851L313.751 382.281L313.763 382.274L313.776 382.266L311.694 378.851ZM654.072 343.757L650.214 342.699L650.212 342.708L650.209 342.718L654.072 343.757ZM644.917 376.03L648.754 377.159L648.757 377.149L644.917 376.03ZM649.809 330.405L647.236 333.467L647.267 333.493L647.298 333.518L649.809 330.405ZM645.154 326.722L647.59 323.55L647.573 323.536L647.555 323.522L645.154 326.722ZM645.152 326.721L642.716 329.893L642.734 329.907L642.752 329.921L645.152 326.721ZM641.358 323.752L643.881 320.647L643.851 320.623L643.821 320.6L641.358 323.752ZM634.113 318.043L631.632 321.18L634.113 318.043ZM626.871 312.336L629.334 309.185L629.325 309.178L629.317 309.171L626.871 312.336ZM623.987 310.113L626.428 306.944L626.423 306.941L623.987 310.113ZM623.977 310.105L626.413 306.933L626.411 306.931L623.977 310.105ZM623.974 310.103L621.534 313.272L621.541 313.278L623.974 310.103ZM613.782 302.144L616.286 299.025L616.278 299.018L616.27 299.011L613.782 302.144ZM603.498 294.06L605.963 290.909L605.954 290.902L603.498 294.06ZM603.49 294.053L601.031 297.208L601.034 297.211L603.49 294.053ZM603.479 294.045L601.015 297.196L601.02 297.199L603.479 294.045ZM595.567 287.837L598.045 284.697L598.038 284.692L595.567 287.837ZM582.093 277.413L579.585 280.53L579.621 280.558L579.657 280.586L582.093 277.413ZM567.896 266.192L565.42 269.334L565.428 269.34L565.436 269.346L567.896 266.192ZM563.054 262.401L560.593 265.555H560.593L563.054 262.401ZM554.751 255.861L557.255 252.742L557.229 252.721L557.203 252.7L554.751 255.861ZM545.154 248.358L547.624 245.212L547.619 245.208L545.154 248.358ZM545.137 248.345L542.668 251.491L542.672 251.495L545.137 248.345ZM536.339 241.462L533.848 244.591L533.866 244.606L533.884 244.62L536.339 241.462ZM535.265 240.608L532.777 243.741L532.778 243.741L535.265 240.608ZM534.305 239.846L531.819 242.98L531.819 242.98L534.305 239.846ZM533.065 238.864L535.55 235.729L535.545 235.725L533.065 238.864ZM533.056 238.857L535.536 235.718L535.511 235.698L535.486 235.679L533.056 238.857ZM533.053 238.854L530.568 241.989L530.596 242.01L530.623 242.032L533.053 238.854ZM528.592 235.309L531.089 232.184L523.656 226.247L524.613 235.712L528.592 235.309ZM528.893 237.098L532.821 236.344L532.805 236.26L532.785 236.177L528.893 237.098ZM533.522 285.753L529.522 285.754V285.757L533.522 285.753ZM531.4 318.331L527.434 317.808L527.431 317.833L527.428 317.858L531.4 318.331ZM513.898 384.971L510.206 383.433L507.898 388.971H513.898V384.971ZM632.946 384.971L633.006 380.972L632.976 380.971H632.946V384.971ZM820.896 282.357C819.904 264.167 812.706 248.055 801.752 233.949L795.433 238.856C805.606 251.955 812.022 266.549 812.908 282.792L820.896 282.357ZM818.541 317.79C821.086 308.888 821.635 296.088 820.896 282.359L812.908 282.789C813.634 296.284 813.019 308.001 810.849 315.592L818.541 317.79ZM810.43 344.539C813.178 335.7 815.953 326.772 818.539 317.799L810.852 315.584C808.293 324.463 805.543 333.312 802.791 342.164L810.43 344.539ZM810.515 344.22L810.516 344.219L802.706 342.484L802.706 342.485L810.515 344.22ZM810.429 344.543L810.432 344.534L802.789 342.171L802.786 342.179L810.429 344.543ZM808.657 350.25C809.245 348.352 809.836 346.452 810.428 344.549L802.788 342.174C802.196 344.077 801.605 345.981 801.016 347.883L808.657 350.25ZM800.235 377.337C803.043 368.316 805.852 359.29 808.657 350.252L801.016 347.88C798.212 356.915 795.404 365.938 792.597 374.96L800.235 377.337ZM800.224 377.372L800.234 377.341L792.598 374.957L792.588 374.989L800.224 377.372ZM800.215 377.404L800.224 377.372L792.588 374.989L792.578 375.02L800.215 377.404ZM786.021 423.132C790.734 407.871 795.473 392.642 800.216 377.401L792.577 375.024C787.834 390.264 783.093 405.501 778.377 420.771L786.021 423.132ZM762.664 498.137C770.516 473.113 778.264 448.173 786.02 423.135L778.378 420.768C770.623 445.802 762.878 470.732 755.031 495.742L762.664 498.137ZM749.978 522.961C755.588 515.449 759.878 507.055 762.666 498.133L755.03 495.747C752.513 503.803 748.638 511.385 743.568 518.174L749.978 522.961ZM733.606 539.637C739.845 534.868 745.364 529.245 749.997 522.935L743.549 518.2C739.368 523.894 734.384 528.972 728.748 533.281L733.606 539.637ZM711.335 550.739C719.387 548.446 726.936 544.685 733.591 539.648L728.763 533.269C722.901 537.706 716.247 541.022 709.143 543.045L711.335 550.739ZM693.365 552.99C699.415 553.091 705.451 552.338 711.288 550.752L709.19 543.032C704.081 544.421 698.797 545.08 693.5 544.991L693.365 552.99ZM693.369 544.991C692.601 545.003 691.832 544.999 691.064 544.978L690.852 552.976C691.734 552.999 692.615 553.004 693.496 552.99L693.369 544.991ZM266.855 552.977H690.958V544.977H266.855V552.977ZM261.991 552.977H266.855V544.977H261.991V552.977ZM261.829 552.974L261.868 552.975L262.113 544.979L262.074 544.978L261.829 552.974ZM258.85 553C259.903 552.998 260.955 552.99 262.006 552.975L261.896 544.976C260.877 544.99 259.857 544.998 258.836 545L258.85 553ZM254.126 553H258.843V545H254.126V553ZM253.878 552.994C253.929 552.996 253.982 552.998 254.018 552.999L254.233 545.001C254.237 545.002 254.238 545.002 254.235 545.001C254.233 545.001 254.228 545.001 254.222 545.001C254.209 545.001 254.19 545 254.166 544.999L253.878 552.994ZM250.511 552.996H254.022V544.996H250.511V552.996ZM238.349 552.479C239.21 552.538 249.978 552.996 250.511 552.996V544.996C250.517 544.996 249.908 544.975 248.76 544.928C247.694 544.885 246.301 544.827 244.893 544.767C243.485 544.707 242.066 544.646 240.949 544.596C240.39 544.57 239.909 544.548 239.545 544.531C239.362 544.522 239.211 544.515 239.096 544.509C239.038 544.506 238.992 544.503 238.956 544.501C238.939 544.5 238.925 544.499 238.914 544.499C238.904 544.498 238.899 544.498 238.9 544.498L238.349 552.479ZM234.741 552.214L238.332 552.478L238.917 544.499L235.326 544.236L234.741 552.214ZM228.119 551.586L234.655 552.207L235.412 544.243L228.876 543.622L228.119 551.586ZM222.742 550.938C224.512 551.175 226.288 551.389 228.069 551.581L228.926 543.627C227.212 543.442 225.504 543.236 223.803 543.009L222.742 550.938ZM130.288 519.541C158.344 535.719 189.577 546.616 222.755 550.94L223.789 543.007C191.688 538.823 161.459 528.28 134.284 512.61L130.288 519.541ZM-3.99966 290.106C-3.99966 388.664 50.1746 474.552 130.327 519.563L134.244 512.588C56.5136 468.936 4.00034 385.659 4.00034 290.106H-3.99966ZM-3.99287 287.754C-3.99867 288.54 -4.00093 289.327 -3.99965 290.113L4.00034 290.1C3.9991 289.338 4.00129 288.575 4.00691 287.813L-3.99287 287.754ZM-4 285.854C-4 286.508 -3.99762 287.161 -3.99288 287.813L4.00691 287.755C4.00231 287.122 4 286.488 4 285.854H-4ZM-3.99186 283.76C-3.99728 284.458 -4 285.156 -4 285.854H4C4 285.177 4.00264 284.499 4.0079 283.823L-3.99186 283.76ZM2.46528 221.27C-2.00835 241.903 -4.14981 262.894 -3.99186 283.822L4.00791 283.761C3.85438 263.419 5.93598 243.017 10.2836 222.965L2.46528 221.27ZM9.03378 218.792L7.65135 218.326L5.09757 225.908L6.48001 226.373L9.03378 218.792ZM255.226 18.9206C133.27 23.924 32.1424 108.578 3.87639 221.612L11.6374 223.553C39.0443 113.954 137.152 31.7715 255.554 26.9139L255.226 18.9206ZM251.78 24.8636C252.024 25.1746 252.286 25.4704 252.566 25.7492L258.215 20.0852C258.167 20.037 258.122 19.9862 258.08 19.9331L251.78 24.8636ZM249.867 20.6442C250.151 22.204 250.82 23.6657 251.81 24.9004L258.051 19.8963C257.889 19.6936 257.783 19.4591 257.739 19.2148L249.867 20.6442ZM250.193 15.9751C249.696 17.4797 249.584 19.0841 249.867 20.6442L257.739 19.2148C257.694 18.9707 257.712 18.7191 257.79 18.481L250.193 15.9751ZM261.579 -18.3273C257.745 -6.89244 254.005 4.42966 250.193 15.9738L257.79 18.4821C261.602 6.93584 265.336 -4.36927 269.164 -15.784L261.579 -18.3273ZM293.37 -113.955C282.727 -82.0775 272.129 -50.1966 261.574 -18.3127L269.169 -15.7986C279.721 -47.6761 290.318 -79.5506 300.958 -111.422L293.37 -113.955ZM304.991 -130.433C299.035 -126.135 295.483 -120.428 293.361 -113.93L300.966 -111.447C302.675 -116.68 305.358 -120.832 309.673 -123.946L304.991 -130.433ZM315.008 -135.211C311.335 -134.31 307.891 -132.66 304.897 -130.363L309.767 -124.016C311.878 -125.635 314.312 -126.803 316.913 -127.441L315.008 -135.211ZM326.231 -135.597C322.504 -136.243 318.681 -136.111 315.008 -135.211L316.913 -127.441C319.515 -128.079 322.224 -128.172 324.865 -127.715L326.231 -135.597ZM341.66 -128.003C337.407 -131.466 332.409 -134.668 326.143 -135.611L324.952 -127.7C329.146 -127.069 332.805 -124.897 336.608 -121.799L341.66 -128.003ZM350.909 -120.467C347.814 -122.975 344.733 -125.471 341.677 -127.988L336.591 -121.814C339.675 -119.272 342.782 -116.756 345.873 -114.251L350.909 -120.467ZM350.779 -120.568L350.778 -120.569L346.004 -114.15L346.005 -114.149L350.779 -120.568ZM360.193 -112.903C357.108 -115.445 354.001 -117.962 350.91 -120.467L345.874 -114.251C348.97 -111.743 352.051 -109.246 355.106 -106.729L360.193 -112.903ZM368.553 -106.416L360.103 -112.976L355.197 -106.657L363.647 -100.096L368.553 -106.416ZM375.589 -100.933C373.249 -102.746 370.908 -104.561 368.575 -106.398L363.625 -100.113C365.986 -98.2541 368.352 -96.4204 370.688 -94.61L375.589 -100.933ZM375.6 -100.924L375.593 -100.929L370.683 -94.6135L370.69 -94.6083L375.6 -100.924ZM382.973 -95.1745C380.542 -97.0932 378.07 -99.01 375.595 -100.928L370.694 -94.6048C373.173 -92.6832 375.618 -90.7884 378.016 -88.8955L382.973 -95.1745ZM396.207 -84.8834C391.8 -88.2463 387.389 -91.705 382.965 -95.1803L378.023 -88.8897C382.445 -85.4156 386.897 -81.9249 391.353 -78.5237L396.207 -84.8834ZM397.68 -83.7344L396.241 -84.8573L391.32 -78.5499L392.759 -77.427L397.68 -83.7344ZM414.876 -70.2433C409.202 -74.7455 403.433 -79.2459 397.68 -83.7344L392.759 -77.4269C398.517 -72.9349 404.259 -68.4547 409.904 -63.9763L414.876 -70.2433ZM421.515 -65.1207C419.273 -66.8371 417.052 -68.5371 414.858 -70.2577L409.922 -63.962C412.159 -62.2081 414.416 -60.4799 416.653 -58.7682L421.515 -65.1207ZM428.247 -59.9262C426.01 -61.6804 423.752 -63.4088 421.515 -65.1207L416.653 -58.7682C418.895 -57.0516 421.116 -55.3513 423.311 -53.6306L428.247 -59.9262ZM432.269 -56.7565C430.927 -57.8147 429.587 -58.8714 428.253 -59.9217L423.305 -53.6351C424.636 -52.588 425.972 -51.5341 427.314 -50.4754L432.269 -56.7565ZM432.271 -56.7542L432.268 -56.7571L427.315 -50.4749L427.318 -50.4721L432.271 -56.7542ZM446.223 -45.8491C441.567 -49.4217 436.908 -53.0969 432.272 -56.7537L427.318 -50.4726C431.946 -46.8215 436.647 -43.113 441.353 -39.5024L446.223 -45.8491ZM455.634 -38.5922C452.488 -40.991 449.352 -43.3816 446.265 -45.8165L441.311 -39.535C444.458 -37.0526 447.646 -34.6223 450.784 -32.2302L455.634 -38.5922ZM455.626 -38.5985L455.623 -38.6011L450.796 -32.2213L450.799 -32.2187L455.626 -38.5985ZM455.614 -38.6079L455.613 -38.6086L450.813 -32.2086L450.814 -32.2079L455.614 -38.6079ZM459.913 -35.3225C458.494 -36.4124 457.065 -37.5016 455.639 -38.589L450.789 -32.2269C452.217 -31.138 453.635 -30.0572 455.042 -28.977L459.913 -35.3225ZM469.26 -27.9971C466.167 -30.4286 463.066 -32.8664 459.936 -35.3052L455.019 -28.9943C458.133 -26.5683 461.22 -24.1413 464.315 -21.708L469.26 -27.9971ZM478.555 -20.7114C475.441 -23.1373 472.354 -25.564 469.26 -27.9971L464.315 -21.708C467.408 -19.2767 470.508 -16.8391 473.638 -14.4006L478.555 -20.7114ZM485.08 -15.6543C482.891 -17.3441 480.712 -19.0255 478.559 -20.708L473.634 -14.4041C475.809 -12.7046 478.006 -11.0088 480.192 -9.32141L485.08 -15.6543ZM491.639 -10.5711C489.464 -12.2707 487.266 -13.9667 485.08 -15.6543L480.192 -9.3214C482.381 -7.63139 484.56 -5.94984 486.713 -4.26723L491.639 -10.5711ZM501.403 -2.9196C498.162 -5.46694 494.913 -8.02033 491.634 -10.5746L486.718 -4.26378C489.981 -1.72165 493.216 0.82132 496.46 3.37035L501.403 -2.9196ZM510.256 4.02095C507.293 1.70956 504.351 -0.602509 501.403 -2.9196L496.46 3.37036C499.406 5.68605 502.359 8.00674 505.334 10.3282L510.256 4.02095ZM517.172 9.37828C514.851 7.58832 512.54 5.80608 510.258 4.0226L505.332 10.3265C507.638 12.128 509.968 13.9255 512.286 15.7129L517.172 9.37828ZM517.19 9.3927L517.177 9.38235L512.28 15.7088L512.294 15.7192L517.19 9.3927ZM523.333 14.1469C521.294 12.5581 519.236 10.9703 517.185 9.38864L512.299 15.7232C514.352 17.3069 516.395 18.8827 518.416 20.4574L523.333 14.1469ZM532.957 21.7245C529.751 19.2101 526.555 16.7041 523.361 14.169L518.388 20.4352C521.603 22.9871 524.817 25.5075 528.02 28.0195L532.957 21.7245ZM541.78 28.6678C538.835 26.3348 535.891 24.0262 532.957 21.7245L528.02 28.0195C530.957 30.3231 533.885 32.6197 536.812 34.9386L541.78 28.6678ZM555.1 38.8137L541.72 28.6213L536.872 34.9851L550.252 45.1776L555.1 38.8137ZM573.254 53.0536C567.176 48.3094 561.123 43.584 555.16 38.8602L550.192 45.131C556.182 49.8756 562.258 54.6187 568.332 59.3599L573.254 53.0536ZM573.756 53.4454L573.254 53.0536L568.332 59.36L568.834 59.7518L573.756 53.4454ZM580.279 58.496C578.09 56.8064 575.91 55.1232 573.754 53.4434L568.837 59.7538C571.009 61.4468 573.204 63.1411 575.391 64.8288L580.279 58.496ZM586.833 63.571C584.66 61.878 582.466 60.1838 580.279 58.496L575.391 64.8288C577.58 66.5184 579.76 68.2016 581.916 69.8814L586.833 63.571ZM596.669 71.2828C593.406 68.716 590.135 66.1438 586.833 63.5708L581.916 69.8816C585.202 72.4413 588.457 75.002 591.723 77.5707L596.669 71.2828ZM596.691 71.3003L596.678 71.2897L591.714 77.5638L591.728 77.5744L596.691 71.3003ZM605.455 78.1761C602.516 75.8824 599.602 73.59 596.682 71.2933L591.736 77.5813C594.654 79.8764 597.58 82.178 600.532 84.4823L605.455 78.1761ZM611.692 82.9993C609.597 81.3852 607.512 79.779 605.452 78.174L600.535 84.4844C602.615 86.1052 604.718 87.7249 606.81 89.3367L611.692 82.9993ZM618.535 88.2949C616.269 86.5256 613.974 84.7578 611.692 82.9993L606.81 89.3367C609.096 91.0979 611.37 92.8497 613.611 94.6002L618.535 88.2949ZM633.342 99.9311L618.545 88.3025L613.601 94.5926L628.399 106.221L633.342 99.9311ZM639.848 104.969C637.661 103.281 635.483 101.599 633.329 99.9209L628.412 106.231C630.583 107.923 632.775 109.615 634.96 111.301L639.848 104.969ZM639.839 104.962L639.833 104.957L634.975 111.313L634.981 111.318L639.839 104.962ZM646.409 110.049C644.236 108.356 642.041 106.661 639.854 104.974L634.966 111.306C637.155 112.996 639.336 114.679 641.491 116.359L646.409 110.049ZM653.051 115.28C650.821 113.535 648.613 111.807 646.444 110.077L641.456 116.331C643.659 118.088 645.895 119.838 648.12 121.58L653.051 115.28ZM660.44 121.108C657.991 119.146 655.508 117.203 653.051 115.28L648.12 121.58C650.583 123.507 653.031 125.423 655.44 127.353L660.44 121.108ZM661.412 121.852L660.376 121.057L655.505 127.403L656.54 128.198L661.412 121.852ZM661.413 121.853L661.402 121.845L656.55 128.206L656.561 128.214L661.413 121.853ZM673.894 131.509C669.792 128.286 665.597 125.065 661.423 121.861L656.551 128.206C660.732 131.416 664.891 134.609 668.952 137.799L673.894 131.509ZM685.417 140.512C681.596 137.507 677.746 134.478 673.866 131.486L668.981 137.822C672.826 140.786 676.645 143.79 680.471 146.8L685.417 140.512ZM685.507 140.585L685.505 140.583L680.384 146.729L680.386 146.731L685.507 140.585ZM685.388 140.489L685.385 140.488L680.508 146.829L680.51 146.83L685.388 140.489ZM692.663 146.196C690.254 144.317 687.844 142.421 685.422 140.516L680.476 146.804C682.895 148.707 685.318 150.613 687.741 152.503L692.663 146.196ZM699.131 151.195C696.965 149.53 694.814 147.877 692.665 146.198L687.739 152.502C689.918 154.204 692.095 155.877 694.256 157.538L699.131 151.195ZM705.65 156.233C703.471 154.53 701.294 152.857 699.131 151.195L694.256 157.538C696.423 159.203 698.575 160.857 700.725 162.537L705.65 156.233ZM710.688 160.197C709.009 158.874 707.332 157.553 705.657 156.238L700.718 162.531C702.386 163.841 704.058 165.158 705.737 166.481L710.688 160.197ZM724.402 170.907C719.797 167.373 715.238 163.781 710.688 160.197L705.737 166.481C710.281 170.06 714.879 173.683 719.531 177.254L724.402 170.907ZM732.743 177.415C729.94 175.251 727.179 173.119 724.458 170.952L719.474 177.209C722.25 179.42 725.058 181.589 727.853 183.747L732.743 177.415ZM732.734 177.409L732.732 177.407L727.864 183.756L727.867 183.758L732.734 177.409ZM737.307 180.951C735.781 179.762 734.257 178.585 732.746 177.418L727.856 183.749C729.369 184.918 730.88 186.085 732.39 187.261L737.307 180.951ZM746.482 188.099C743.441 185.707 740.375 183.295 737.277 180.928L732.419 187.284C735.465 189.612 738.488 191.99 741.536 194.387L746.482 188.099ZM755.893 195.427C752.749 193.028 749.629 190.574 746.482 188.099L741.536 194.387C744.675 196.856 747.842 199.347 751.042 201.788L755.893 195.427ZM761.953 200.139C759.926 198.579 757.929 197.042 755.955 195.475L750.98 201.739C753.009 203.351 755.055 204.925 757.073 206.479L761.953 200.139ZM761.917 200.112L761.913 200.109L757.113 206.509L757.117 206.512L761.917 200.112ZM769.051 205.68C766.688 203.783 764.302 201.948 761.957 200.142L757.077 206.482C759.434 208.296 761.754 210.082 764.043 211.919L769.051 205.68ZM776.746 211.682C774.174 209.67 771.59 207.65 768.999 205.639L764.095 211.96C766.672 213.96 769.244 215.97 771.818 217.984L776.746 211.682ZM776.723 211.664L776.718 211.66L771.846 218.005L771.851 218.009L776.723 211.664ZM786.83 219.531C783.478 216.946 780.124 214.323 776.751 211.686L771.823 217.987C775.192 220.622 778.567 223.261 781.943 225.866L786.83 219.531ZM801.718 233.906C797.385 228.482 792.361 223.636 786.771 219.487L782.002 225.91C787.041 229.65 791.566 234.016 795.467 238.899L801.718 233.906ZM271.384 394.675C279.45 394.338 287.446 393.129 295.228 391.076L293.187 383.341C285.963 385.247 278.54 386.369 271.05 386.682L271.384 394.675ZM268.575 385.649L267.393 389.505L275.041 391.851L276.224 387.995L268.575 385.649ZM237.21 390.79C249.067 392.915 261.21 392.913 273.112 390.759L271.687 382.886C260.724 384.871 249.542 384.873 238.621 382.916L237.21 390.79ZM205.353 376.389C215.075 382.805 225.711 387.619 236.846 390.708L238.984 382.999C228.648 380.131 218.778 375.663 209.76 369.712L205.353 376.389ZM164.693 327.456C173.05 347.384 187.202 364.41 205.353 376.389L209.76 369.712C192.922 358.6 179.809 342.816 172.071 324.363L164.693 327.456ZM158.425 264.444C154.154 285.599 156.337 307.528 164.693 327.456L172.071 324.363C164.333 305.91 162.314 285.61 166.266 266.027L158.425 264.444ZM186.466 210.868C172.22 225.749 162.488 244.313 158.425 264.444L166.266 266.027C170.028 247.392 179.039 230.195 192.244 216.4L186.466 210.868ZM187.602 209.848L186.711 210.633L191.999 216.636L192.89 215.851L187.602 209.848ZM188.572 208.996L187.606 209.844L192.885 215.855L193.851 215.007L188.572 208.996ZM189.478 208.198L188.567 209L193.855 215.003L194.766 214.201L189.478 208.198ZM190.391 207.431L189.553 208.133L194.691 214.265L195.529 213.563L190.391 207.431ZM190.671 207.195L190.379 207.441L195.541 213.554L195.832 213.307L190.671 207.195ZM192.338 205.855C191.817 206.266 191.26 206.708 190.705 207.166L195.798 213.336C196.281 212.937 196.78 212.54 197.298 212.131L192.338 205.855ZM192.499 205.725L192.317 205.871L197.319 212.115L197.501 211.969L192.499 205.725ZM193.389 205.04L192.56 205.678L197.44 212.017L198.269 211.379L193.389 205.04ZM199.855 200.424C197.636 201.88 195.477 203.421 193.379 205.047L198.279 211.371C200.212 209.873 202.2 208.454 204.243 207.114L199.855 200.424ZM200.709 199.843L199.798 200.463L204.3 207.076L205.211 206.456L200.709 199.843ZM201.046 199.629L200.855 199.748L205.065 206.55L205.257 206.432L201.046 199.629ZM201.978 199.04L201.012 199.651L205.29 206.411L206.256 205.8L201.978 199.04ZM203.037 198.39L202.026 199.01L206.207 205.83L207.219 205.21L203.037 198.39ZM205.576 196.889C204.715 197.378 203.873 197.876 203.034 198.392L207.221 205.208C207.985 204.739 208.746 204.289 209.524 203.848L205.576 196.889ZM206.528 196.354C206.16 196.55 205.813 196.752 205.54 196.91L209.56 203.827C209.852 203.657 210.07 203.531 210.284 203.417L206.528 196.354ZM207.447 195.846L206.473 196.383L210.34 203.387L211.314 202.849L207.447 195.846ZM208.291 195.39L207.481 195.827L211.281 202.867L212.091 202.43L208.291 195.39ZM208.948 195.046L208.338 195.365L212.045 202.454L212.655 202.135L208.948 195.046ZM210.856 194.591H210.802V202.591H210.856V194.591ZM210.739 194.136L208.999 195.048L212.713 202.133L214.453 201.222L210.739 194.136ZM212.656 193.176C212.029 193.483 211.403 193.797 210.777 194.116L214.414 201.242C215.003 200.941 215.591 200.647 216.179 200.358L212.656 193.176ZM213.528 192.768L212.727 193.142L216.108 200.392L216.909 200.019L213.528 192.768ZM213.355 192.853L213.273 192.899L217.165 199.888L217.246 199.843L213.355 192.853ZM215.464 191.878L213.643 192.708L216.959 199.988L218.78 199.158L215.464 191.878ZM216.643 191.37L215.541 191.844L218.703 199.193L219.805 198.719L216.643 191.37ZM217.412 191.04L216.647 191.368L219.801 198.72L220.566 198.392L217.412 191.04ZM218.18 190.724L217.47 191.016L220.508 198.416L221.219 198.124L218.18 190.724ZM219.286 190.278L218.202 190.715L221.197 198.133L222.281 197.696L219.286 190.278ZM220.874 189.987H220.783V197.987H220.874V189.987ZM220.515 189.837L219.431 190.256L222.318 197.717L223.402 197.298L220.515 189.837ZM221.823 189.353C221.4 189.501 220.945 189.666 220.486 189.848L223.43 197.287C223.755 197.158 224.101 197.032 224.461 196.906L221.823 189.353ZM223.157 188.893L221.837 189.349L224.447 196.911L225.768 196.455L223.157 188.893ZM223.893 188.638L223.155 188.894L225.771 196.454L226.508 196.199L223.893 188.638ZM224.484 188.432L223.883 188.642L226.518 196.195L227.119 195.985L224.484 188.432ZM225.531 188.088L224.557 188.407L227.046 196.01L228.021 195.691L225.531 188.088ZM226.215 187.866L225.541 188.085L228.011 195.694L228.685 195.475L226.215 187.866ZM227.012 187.613L226.238 187.859L228.662 195.483L229.436 195.237L227.012 187.613ZM227.949 187.322L227.038 187.604L229.41 195.245L230.32 194.962L227.949 187.322ZM228.966 187.035L228.055 187.291L230.214 194.994L231.125 194.738L228.966 187.035ZM229.671 186.84L228.979 187.032L231.112 194.742L231.804 194.551L229.671 186.84ZM231.027 186.466C230.616 186.576 230.103 186.714 229.617 186.856L231.859 194.535C232.247 194.422 232.681 194.305 233.09 194.195L231.027 186.466ZM231.867 186.236L231.001 186.473L233.115 194.189L233.98 193.952L231.867 186.236ZM237.395 184.97C235.556 185.341 233.736 185.758 231.933 186.218L233.914 193.969C235.584 193.542 237.273 193.156 238.981 192.811L237.395 184.97ZM238.375 184.775L237.41 184.967L238.966 192.814L239.931 192.622L238.375 184.775ZM241.214 184.263C240.278 184.423 239.342 184.591 238.405 184.769L239.9 192.628C240.786 192.46 241.671 192.3 242.556 192.15L241.214 184.263ZM243.385 183.933C242.72 184.027 242.028 184.125 241.214 184.263L242.556 192.15C243.247 192.032 243.836 191.949 244.506 191.854L243.385 183.933ZM243.805 183.873C243.664 183.893 243.525 183.913 243.385 183.933L244.506 191.854C244.646 191.834 244.791 191.813 244.938 191.792L243.805 183.873ZM244.601 183.767L243.845 183.867L244.898 191.798L245.654 191.698L244.601 183.767ZM245.522 183.647L244.611 183.766L245.644 191.699L246.554 191.58L245.522 183.647ZM246.472 183.533L245.561 183.642L246.515 191.585L247.426 191.476L246.472 183.533ZM247.806 183.383L246.504 183.529L247.394 191.48L248.697 191.334L247.806 183.383ZM249.031 183.267L247.875 183.376L248.628 191.341L249.785 191.231L249.031 183.267ZM250.715 183.134L249.094 183.262L249.722 191.237L251.343 191.109L250.715 183.134ZM251.891 183.05L250.744 183.132L251.314 191.111L252.462 191.029L251.891 183.05ZM253.202 182.973L251.945 183.046L252.408 191.033L253.665 190.96L253.202 182.973ZM254.412 182.916L253.246 182.971L253.621 190.962L254.787 190.907L254.412 182.916ZM255.191 182.912H254.599V190.912H255.191V182.912ZM255.801 182.912H255.191V190.912H255.801V182.912ZM256.503 182.912H255.801V190.912H256.503V182.912ZM258.807 182.912H256.503V190.912H258.807V182.912ZM334.561 214.324C314.466 194.22 287.22 182.922 258.808 182.912L258.805 190.912C285.095 190.921 310.306 201.375 328.903 219.979L334.561 214.324ZM365.985 290.13C365.958 261.692 354.656 234.427 334.561 214.324L328.903 219.979C347.499 238.584 357.96 263.817 357.985 290.138L365.985 290.13ZM365.985 291.474V290.134H357.985V291.474H365.985ZM365.985 292.714V291.474H357.985V292.714H365.985ZM365.985 294.282V292.714H357.985V294.282H365.985ZM365.926 295.606L365.981 294.475L357.99 294.089L357.935 295.219L365.926 295.606ZM365.873 296.683C365.895 296.381 365.931 295.909 365.931 295.412H357.931C357.931 295.574 357.919 295.76 357.894 296.109L365.873 296.683ZM365.872 296.704L365.872 296.703L357.895 296.089L357.895 296.091L365.872 296.704ZM365.857 296.92C365.861 296.846 365.867 296.771 365.873 296.685L357.894 296.11C357.888 296.194 357.881 296.289 357.874 296.385L365.857 296.92ZM365.85 297.015C365.852 296.985 365.854 296.954 365.857 296.92L357.874 296.385C357.871 296.43 357.868 296.478 357.865 296.527L365.85 297.015ZM365.812 297.582C365.823 297.427 365.837 297.24 365.85 297.015L357.865 296.527C357.855 296.698 357.844 296.843 357.833 296.998L365.812 297.582ZM365.798 297.776C365.802 297.715 365.806 297.652 365.812 297.582L357.833 296.998C357.828 297.068 357.822 297.142 357.817 297.217L365.798 297.776ZM365.78 298.065C365.785 297.97 365.79 297.879 365.798 297.775L357.817 297.218C357.808 297.353 357.798 297.501 357.79 297.665L365.78 298.065ZM365.665 299.522C365.707 299.164 365.785 298.535 365.785 297.865H357.785C357.785 297.99 357.77 298.155 357.719 298.593L365.665 299.522ZM365.62 299.925C365.632 299.809 365.646 299.687 365.665 299.522L357.719 298.593C357.701 298.745 357.678 298.941 357.658 299.142L365.62 299.925ZM365.545 300.797C365.571 300.584 365.639 300.077 365.639 299.533H357.639C357.639 299.496 357.642 299.492 357.637 299.544C357.631 299.602 357.623 299.67 357.606 299.81L365.545 300.797ZM365.497 301.089L365.497 301.088L357.653 299.519L357.653 299.52L365.497 301.089ZM365.513 301.071C365.518 301.01 365.527 300.94 365.544 300.798L357.606 299.811C357.59 299.932 357.566 300.126 357.547 300.33L365.513 301.071ZM365.219 303.673C365.318 302.852 365.424 301.979 365.511 301.089L357.549 300.311C357.472 301.096 357.378 301.879 357.277 302.714L365.219 303.673ZM365.17 303.978L365.171 303.978L357.326 302.409L357.326 302.409L365.17 303.978ZM365.217 303.694L365.217 303.69L357.279 302.698L357.278 302.702L365.217 303.694ZM365.116 304.446C365.136 304.338 365.248 303.805 365.248 303.198H357.248C357.248 303.045 357.261 302.937 357.266 302.903C357.269 302.886 357.27 302.879 357.268 302.892C357.265 302.908 357.261 302.927 357.253 302.973L365.116 304.446ZM365.101 304.527C365.1 304.534 365.1 304.534 365.102 304.519C365.105 304.503 365.109 304.484 365.116 304.446L357.253 302.973C357.242 303.031 357.216 303.165 357.194 303.31L365.101 304.527ZM365.035 305.073L365.117 304.408L357.177 303.429L357.095 304.095L365.035 305.073ZM364.656 307.557C364.789 306.755 364.913 305.948 365.026 305.143L357.105 304.026C357 304.771 356.886 305.513 356.765 306.243L364.656 307.557ZM364.559 308.158C364.57 308.105 364.71 307.541 364.71 306.9H356.71C356.71 306.679 356.734 306.517 356.745 306.45C356.748 306.432 356.751 306.418 356.752 306.409C356.753 306.405 356.754 306.401 356.754 306.399C356.755 306.397 356.755 306.395 356.755 306.395C356.755 306.395 356.755 306.396 356.754 306.399C356.754 306.401 356.753 306.404 356.752 306.408C356.75 306.418 356.748 306.429 356.744 306.447L364.559 308.158ZM364.551 308.191L364.553 308.186L356.75 306.419L356.749 306.424L364.551 308.191ZM364.547 308.21C364.549 308.203 364.551 308.192 364.558 308.16L356.742 306.454C356.736 306.483 356.725 306.532 356.714 306.586L364.547 308.21ZM364.548 308.205C364.547 308.211 364.546 308.215 364.547 308.214L356.715 306.583C356.707 306.62 356.698 306.662 356.69 306.707L364.548 308.205ZM364.559 308.148L364.56 308.141L356.678 306.771L356.677 306.777L364.559 308.148ZM364.348 309.352C364.431 308.919 364.502 308.492 364.564 308.119L356.672 306.805C356.608 307.194 356.552 307.529 356.489 307.857L364.348 309.352ZM364.167 310.35C364.204 310.155 364.236 309.976 364.263 309.82C364.291 309.661 364.317 309.517 364.348 309.352L356.489 307.857C356.448 308.076 356.414 308.264 356.386 308.426C356.356 308.592 356.333 308.723 356.306 308.865L364.167 310.35ZM364.237 309.735V309.608H356.237V309.735H364.237ZM364.103 310.808C364.124 310.701 364.141 310.609 364.159 310.519L356.314 308.952C356.289 309.075 356.266 309.196 356.247 309.298L364.103 310.808ZM363.956 311.527C364.015 311.266 364.066 311.001 364.103 310.808L356.247 309.297C356.204 309.518 356.178 309.652 356.152 309.767L363.956 311.527ZM363.387 314.174C363.597 313.266 363.787 312.379 363.977 311.43L356.132 309.863C355.957 310.738 355.783 311.547 355.593 312.371L363.387 314.174ZM363.321 314.456C363.35 314.33 363.359 314.289 363.371 314.241L355.609 312.304C355.572 312.453 355.537 312.608 355.522 312.676L363.321 314.456ZM363.231 314.828C363.27 314.679 363.301 314.543 363.321 314.456L355.522 312.676C355.504 312.755 355.497 312.782 355.494 312.793L363.231 314.828ZM362.641 317.197C362.867 316.361 363.07 315.527 363.259 314.716L355.466 312.905C355.29 313.662 355.111 314.397 354.918 315.11L362.641 317.197ZM362.56 317.519C362.596 317.375 362.62 317.275 362.645 317.183L354.914 315.124C354.866 315.303 354.823 315.479 354.791 315.61L362.56 317.519ZM362.555 317.539L362.556 317.535L354.795 315.594L354.794 315.599L362.555 317.539ZM362.435 318.013C362.483 317.832 362.527 317.655 362.559 317.523L354.79 315.615C354.754 315.76 354.729 315.861 354.705 315.953L362.435 318.013ZM361.963 319.702C362.129 319.135 362.283 318.576 362.431 318.029L354.709 315.937C354.566 316.466 354.428 316.964 354.285 317.455L361.963 319.702ZM361.932 319.811L361.971 319.672L354.276 317.485L354.237 317.623L361.932 319.811ZM361.704 320.577C361.796 320.29 361.876 320.008 361.933 319.808L354.236 317.626C354.173 317.849 354.13 317.998 354.088 318.13L361.704 320.577ZM361.078 322.641C361.309 321.917 361.529 321.188 361.739 320.465L354.053 318.242C353.862 318.905 353.663 319.562 353.458 320.205L361.078 322.641ZM360.552 324.256L361.071 322.661L353.464 320.185L352.945 321.781L360.552 324.256ZM360.466 324.505C360.48 324.465 360.487 324.444 360.493 324.427C360.498 324.412 360.498 324.412 360.494 324.421L353.003 321.616C352.945 321.77 352.896 321.917 352.875 321.98L360.466 324.505ZM360.465 324.509L360.466 324.507L352.876 321.977L352.875 321.98L360.465 324.509ZM360.34 324.868C360.397 324.715 360.445 324.57 360.465 324.509L352.875 321.981C352.862 322.021 352.855 322.041 352.849 322.057C352.844 322.073 352.844 322.072 352.848 322.063L360.34 324.868ZM360.041 325.746L360.378 324.761L352.809 322.17L352.472 323.154L360.041 325.746ZM359.529 327.171L360.021 325.804L352.493 323.096L352.001 324.464L359.529 327.171ZM359.324 327.719C359.402 327.511 359.439 327.409 359.506 327.232L352.023 324.403C351.965 324.558 351.881 324.784 351.836 324.904L359.324 327.719ZM359.228 327.972C359.261 327.885 359.294 327.8 359.324 327.719L351.836 324.904C351.81 324.972 351.786 325.036 351.762 325.098L359.228 327.972ZM359.09 328.322C359.139 328.2 359.185 328.083 359.228 327.973L351.762 325.098C351.732 325.176 351.703 325.249 351.675 325.318L359.09 328.322ZM358.937 328.725C358.999 328.556 359.041 328.444 359.09 328.322L351.675 325.319C351.571 325.575 351.488 325.8 351.429 325.961L358.937 328.725ZM358.759 329.197C358.829 329.017 358.891 328.85 358.937 328.725L351.429 325.961C351.38 326.096 351.348 326.182 351.314 326.267L358.759 329.197ZM358.175 330.652L358.749 329.221L351.324 326.243L350.75 327.675L358.175 330.652ZM358.023 331.027C358.069 330.916 358.127 330.775 358.185 330.628L350.74 327.698C350.707 327.784 350.67 327.873 350.621 327.993L358.023 331.027ZM357.962 331.177C357.981 331.129 358.001 331.082 358.023 331.028L350.621 327.993C350.6 328.045 350.576 328.104 350.551 328.164L357.962 331.177ZM357.927 331.265C357.938 331.236 357.95 331.206 357.963 331.174L350.55 328.166C350.535 328.205 350.518 328.247 350.5 328.29L357.927 331.265ZM357.899 331.335C357.907 331.313 357.916 331.291 357.926 331.268L350.501 328.288C350.485 328.327 350.469 328.368 350.453 328.41L357.899 331.335ZM357.849 331.466C357.864 331.426 357.88 331.383 357.899 331.336L350.453 328.409C350.419 328.495 350.384 328.587 350.348 328.684L357.849 331.466ZM358.098 330.139V330.075H350.098V330.139H358.098ZM357.486 332.391L357.778 331.708L350.419 328.57L350.127 329.254L357.486 332.391ZM357.138 333.193L357.475 332.418L350.139 329.227L349.802 330.002L357.138 333.193ZM356.612 334.357C356.8 333.96 356.973 333.572 357.137 333.194L349.802 330.001C349.657 330.334 349.52 330.64 349.38 330.935L356.612 334.357ZM356.35 334.948L356.65 334.273L349.342 331.019L349.042 331.694L356.35 334.948ZM356.066 335.558L356.321 335.011L349.07 331.63L348.815 332.177L356.066 335.558ZM354.927 337.915C355.328 337.122 355.703 336.331 356.062 335.567L348.82 332.168C348.468 332.918 348.133 333.622 347.787 334.305L354.927 337.915ZM354.369 339.03C354.585 338.619 354.785 338.207 354.954 337.861L347.76 334.36C347.583 334.725 347.437 335.024 347.288 335.306L354.369 339.03ZM353.81 340.114L354.384 339.002L347.274 335.334L346.7 336.447L353.81 340.114ZM353.219 341.222L353.783 340.165L346.727 336.396L346.162 337.454L353.219 341.222ZM352.573 342.393L353.192 341.271L346.189 337.404L345.569 338.526L352.573 342.393ZM351.947 343.494L352.548 342.436L345.594 338.482L344.992 339.54L351.947 343.494ZM351.183 344.721C351.48 344.296 351.743 343.851 351.944 343.5L344.996 339.534C344.832 339.821 344.713 340.014 344.627 340.136L351.183 344.721ZM351.107 344.868C351.265 344.634 351.407 344.384 351.53 344.121L344.281 340.736C344.336 340.619 344.398 340.509 344.466 340.408L351.107 344.868ZM350.535 345.792C350.791 345.413 351.036 345.015 351.261 344.621L344.313 340.655C344.173 340.9 344.035 341.122 343.909 341.308L350.535 345.792ZM350.341 346.121C350.446 345.952 350.557 345.769 350.671 345.576L343.774 341.523C343.701 341.646 343.623 341.775 343.535 341.917L350.341 346.121ZM350.14 346.446C350.204 346.343 350.272 346.233 350.341 346.122L343.535 341.917C343.477 342.012 343.417 342.108 343.351 342.213L350.14 346.446ZM350.136 346.451L350.137 346.45L343.353 342.21L343.352 342.211L350.136 346.451ZM349.791 347.01C349.9 346.83 350.011 346.652 350.139 346.448L343.35 342.215C343.227 342.412 343.085 342.64 342.941 342.879L349.791 347.01ZM349.129 348.035L349.721 347.123L343.012 342.766L342.419 343.678L349.129 348.035ZM348.775 348.575L349.121 348.047L342.427 343.666L342.081 344.195L348.775 348.575ZM347.968 349.79C348.266 349.364 348.546 348.938 348.807 348.526L342.049 344.245C341.836 344.58 341.625 344.902 341.412 345.205L347.968 349.79ZM347.555 350.398C347.713 350.163 347.843 349.969 347.968 349.79L341.412 345.205C341.232 345.463 341.056 345.727 340.907 345.949L347.555 350.398ZM347.229 350.882C347.343 350.716 347.455 350.549 347.555 350.398L340.907 345.949C340.803 346.104 340.711 346.241 340.621 346.374L347.229 350.882ZM346.23 352.238L347.141 351.007L340.71 346.249L339.799 347.479L346.23 352.238ZM345.777 352.873C345.922 352.676 346.135 352.389 346.344 352.076L339.685 347.642C339.602 347.766 339.505 347.899 339.341 348.121L345.777 352.873ZM345.401 353.389L345.793 352.851L339.325 348.143L338.934 348.681L345.401 353.389ZM345.188 353.684C345.27 353.573 345.352 353.46 345.433 353.345L338.902 348.725C338.856 348.79 338.807 348.857 338.757 348.925L345.188 353.684ZM344.836 354.146C344.952 353.997 345.07 353.842 345.187 353.684L338.757 348.925C338.685 349.022 338.61 349.121 338.534 349.218L344.836 354.146ZM343.207 356.287C343.774 355.561 344.348 354.814 344.91 354.048L338.459 349.316C337.965 349.99 337.446 350.666 336.902 351.362L343.207 356.287ZM342.597 357.051L343.179 356.322L336.929 351.328L336.347 352.057L342.597 357.051ZM341.892 357.944L342.612 357.032L336.332 352.076L335.612 352.988L341.892 357.944ZM340.996 359.055C341.259 358.719 341.512 358.414 341.862 357.981L335.642 352.951C335.373 353.283 335.007 353.726 334.687 354.137L340.996 359.055ZM339.799 360.414C340.183 360.02 340.582 359.586 340.996 359.056L334.687 354.137C334.518 354.354 334.335 354.558 334.062 354.839L339.799 360.414ZM339.547 360.716L339.957 360.242L333.904 355.011L333.495 355.485L339.547 360.716ZM338.74 361.621L339.505 360.764L333.537 355.437L332.772 356.294L338.74 361.621ZM338.56 361.826L338.76 361.598L332.751 356.317L332.551 356.545L338.56 361.826ZM337.491 363.003C337.822 362.645 338.195 362.242 338.562 361.823L332.548 356.548C332.26 356.876 331.959 357.203 331.616 357.574L337.491 363.003ZM336.813 363.724C337.046 363.48 337.279 363.233 337.491 363.003L331.616 357.574C331.443 357.761 331.243 357.973 331.034 358.191L336.813 363.724ZM336.509 364.039C336.61 363.934 336.712 363.829 336.813 363.723L331.034 358.192C330.943 358.286 330.852 358.381 330.761 358.474L336.509 364.039ZM336.287 364.267C336.36 364.192 336.435 364.116 336.509 364.038L330.761 358.475C330.694 358.544 330.628 358.612 330.561 358.68L336.287 364.267ZM335.856 364.715C336.01 364.554 336.149 364.409 336.287 364.267L330.561 358.68C330.392 358.854 330.227 359.026 330.077 359.183L335.856 364.715ZM335.116 365.477C335.38 365.213 335.635 364.946 335.856 364.715L330.077 359.182C329.846 359.424 329.65 359.629 329.456 359.823L335.116 365.477ZM335.093 365.499L335.118 365.475L329.454 359.825L329.429 359.85L335.093 365.499ZM334.595 365.997C334.763 365.83 334.93 365.663 335.091 365.501L329.431 359.848C329.269 360.01 329.109 360.171 328.948 360.331L334.595 365.997ZM333.917 366.668C334.147 366.443 334.374 366.218 334.595 365.997L328.948 360.33C328.737 360.541 328.529 360.747 328.324 360.948L333.917 366.668ZM332.73 367.819L333.905 366.679L328.335 360.936L327.16 362.076L332.73 367.819ZM331.501 368.97C331.927 368.584 332.336 368.194 332.704 367.844L327.187 362.05C326.808 362.412 326.47 362.733 326.131 363.04L331.501 368.97ZM331.308 369.141L331.463 369.004L326.169 363.006L326.014 363.143L331.308 369.141ZM328.935 371.268C329.738 370.566 330.567 369.832 331.386 369.07L325.936 363.213C325.207 363.892 324.451 364.562 323.669 365.246L328.935 371.268ZM327.621 372.375L328.878 371.318L323.727 365.196L322.47 366.254L327.621 372.375ZM326.406 373.382C326.791 373.068 327.223 372.717 327.65 372.35L322.441 366.279C322.103 366.568 321.751 366.855 321.353 367.18L326.406 373.382ZM324.814 374.65L326.371 373.41L321.388 367.151L319.831 368.391L324.814 374.65ZM323.778 375.447L324.762 374.691L319.883 368.35L318.9 369.107L323.778 375.447ZM323.448 375.695L323.74 375.476L318.938 369.078L318.646 369.297L323.448 375.695ZM322.346 376.559L323.511 375.647L318.583 369.345L317.417 370.257L322.346 376.559ZM320.967 377.568C321.379 377.273 321.838 376.943 322.294 376.598L317.469 370.217C317.105 370.492 316.727 370.764 316.3 371.071L320.967 377.568ZM320.691 377.763L320.937 377.59L316.33 371.049L316.084 371.223L320.691 377.763ZM319.407 378.652C319.866 378.349 320.305 378.042 320.729 377.736L316.047 371.249C315.687 371.509 315.343 371.749 315.001 371.975L319.407 378.652ZM318.267 379.422L319.442 378.629L314.966 371.998L313.791 372.791L318.267 379.422ZM317.791 379.743L318.264 379.424L313.794 372.789L313.32 373.108L317.791 379.743ZM316.644 380.489L317.737 379.778L313.374 373.073L312.281 373.784L316.644 380.489ZM315.295 381.336L316.588 380.525L312.337 373.748L311.044 374.559L315.295 381.336ZM315.072 381.476L315.291 381.339L311.048 374.557L310.829 374.694L315.072 381.476ZM313.776 382.266L315.032 381.5L310.869 374.669L309.612 375.435L313.776 382.266ZM295.585 390.964C301.874 388.657 307.958 385.755 313.751 382.281L309.637 375.42C304.277 378.634 298.648 381.319 292.83 383.453L295.585 390.964ZM650.209 342.718C647.311 353.494 644.205 364.177 641.077 374.911L648.757 377.149C651.883 366.423 655.011 355.664 657.934 344.796L650.209 342.718ZM647.298 333.518C648.945 334.847 649.856 336.249 650.288 337.645C650.724 339.052 650.756 340.722 650.214 342.699L657.929 344.815C658.805 341.621 658.889 338.375 657.93 335.279C656.968 332.173 655.039 329.484 652.32 327.291L647.298 333.518ZM642.719 329.895C644.31 331.117 645.809 332.269 647.236 333.467L652.382 327.342C650.798 326.011 649.158 324.753 647.59 323.55L642.719 329.895ZM642.753 329.921L642.754 329.922L647.555 323.522L647.553 323.521L642.753 329.921ZM642.752 329.921L642.753 329.921L647.553 323.521L647.552 323.521L642.752 329.921ZM638.836 326.856C640.139 327.915 641.456 328.926 642.716 329.893L647.588 323.548C646.314 322.57 645.084 321.625 643.881 320.647L638.836 326.856ZM631.632 321.18C634.046 323.09 636.471 325.009 638.896 326.904L643.821 320.6C641.419 318.723 639.013 316.819 636.595 314.906L631.632 321.18ZM624.408 315.488C626.809 317.365 629.215 319.268 631.632 321.18L636.595 314.906C634.182 312.997 631.758 311.078 629.334 309.185L624.408 315.488ZM621.547 313.282C622.512 314.026 623.471 314.764 624.425 315.501L629.317 309.171C628.357 308.429 627.392 307.687 626.428 306.944L621.547 313.282ZM621.546 313.282L621.551 313.286L626.423 306.941L626.418 306.937L621.546 313.282ZM621.541 313.278L621.546 313.282L626.418 306.937L626.413 306.933L621.541 313.278ZM621.541 313.278L621.543 313.28L626.411 306.931L626.408 306.929L621.541 313.278ZM611.278 305.263C614.682 307.996 618.144 310.662 621.534 313.272L626.415 306.934C623.015 304.315 619.617 301.698 616.286 299.025L611.278 305.263ZM601.034 297.21C604.48 299.906 607.912 302.59 611.295 305.276L616.27 299.011C612.86 296.304 609.405 293.601 605.963 290.909L601.034 297.21ZM601.034 297.211L601.043 297.217L605.954 290.902L605.946 290.896L601.034 297.211ZM601.02 297.199L601.031 297.208L605.95 290.899L605.939 290.89L601.02 297.199ZM593.089 290.977C595.72 293.054 598.372 295.128 601.015 297.196L605.944 290.894C603.298 288.825 600.66 286.762 598.045 284.697L593.089 290.977ZM579.657 280.586C584.186 284.063 588.693 287.524 593.095 290.983L598.038 284.692C593.595 281.201 589.052 277.713 584.529 274.241L579.657 280.586ZM565.436 269.346C570.264 273.111 574.875 276.739 579.585 280.53L584.601 274.297C579.846 270.471 575.2 266.816 570.356 263.038L565.436 269.346ZM560.593 265.555C562.226 266.829 563.84 268.088 565.42 269.334L570.372 263.051C568.774 261.791 567.145 260.52 565.515 259.248L560.593 265.555ZM552.247 258.98C554.998 261.188 557.823 263.393 560.593 265.555L565.515 259.248C562.737 257.08 559.955 254.909 557.255 252.742L552.247 258.98ZM542.684 251.505C545.881 254.014 549.088 256.531 552.3 259.022L557.203 252.7C554.013 250.226 550.824 247.723 547.624 245.212L542.684 251.505ZM542.672 251.495L542.689 251.508L547.619 245.208L547.602 245.195L542.672 251.495ZM533.884 244.62C536.81 246.894 539.734 249.189 542.668 251.491L547.607 245.198C544.676 242.898 541.736 240.591 538.793 238.303L533.884 244.62ZM532.778 243.741C533.133 244.023 533.49 244.306 533.848 244.591L538.83 238.332C538.469 238.045 538.109 237.759 537.753 237.476L532.778 243.741ZM531.819 242.98C532.138 243.233 532.457 243.486 532.777 243.741L537.753 237.476C537.431 237.22 537.11 236.966 536.79 236.712L531.819 242.98ZM530.581 241.999C530.993 242.325 531.406 242.652 531.819 242.98L536.79 236.712C536.376 236.383 535.962 236.056 535.55 235.729L530.581 241.999ZM530.577 241.995L530.586 242.002L535.545 235.725L535.536 235.718L530.577 241.995ZM530.623 242.032L530.626 242.034L535.486 235.679L535.483 235.677L530.623 242.032ZM526.096 238.435C527.608 239.643 529.088 240.816 530.568 241.989L535.538 235.719C534.056 234.545 532.588 233.381 531.089 232.184L526.096 238.435ZM532.785 236.177C532.687 235.76 532.615 235.335 532.572 234.907L524.613 235.712C524.691 236.487 524.82 237.257 525 238.018L532.785 236.177ZM537.522 285.752C537.518 269.174 535.944 252.633 532.821 236.344L524.964 237.851C527.992 253.644 529.518 269.681 529.522 285.754L537.522 285.752ZM535.366 318.855C536.814 307.877 537.534 296.818 537.522 285.748L529.522 285.757C529.534 296.474 528.837 307.181 527.434 317.808L535.366 318.855ZM517.59 386.51C526.616 364.847 532.599 342.068 535.372 318.805L527.428 317.858C524.742 340.388 518.948 362.45 510.206 383.433L517.59 386.51ZM632.946 380.971H513.898V388.971H632.946V380.971ZM641.08 374.901C640.479 376.943 639.45 378.44 638.186 379.417C636.941 380.379 635.253 381.006 633.006 380.972L632.885 388.971C636.779 389.03 640.274 387.914 643.078 385.747C645.863 383.595 647.75 380.574 648.754 377.159L641.08 374.901Z" fill="#5B6374" mask="url(#path-1-inside-1_663_1398)"></path></g></svg>