<svg xmlns="http://www.w3.org/2000/svg" width="951" height="816" viewBox="0 0 951 816" fill="none"><path d="M910.63 487.47C909.63 468.89 902.38 452.32 891.13 437.64C886.745 432.078 881.66 427.107 876 422.85C869.68 417.91 863.36 412.85 857 407.85C852.39 404.1 847.68 400.56 843.07 396.85C836.42 391.71 829.89 386.35 823.24 381.2C818.63 377.56 814.03 374.02 809.52 370.38C802.77 365.13 796.12 359.77 789.52 354.52C784.91 350.87 780.3 347.34 775.69 343.69C769.05 338.44 762.41 333.08 755.69 327.83C750.98 324.08 746.15 320.33 741.33 316.58C736.4 312.58 731.33 308.64 726.43 304.68C721.82 301.04 717.11 297.39 712.5 293.75L696.74 281.2C692.14 277.56 687.42 273.92 682.81 270.28C676.16 265.02 669.63 259.77 662.98 254.52C658.37 250.88 653.66 247.23 649.05 243.59C642.4 238.33 635.76 233.08 629.22 227.83L614.97 216.83C608.43 211.58 601.89 206.44 595.35 201.18C590.74 197.54 586.03 193.9 581.42 190.25C574.78 185 568.24 179.75 561.59 174.5C556.98 170.85 552.27 167.21 547.66 163.56C541.01 158.31 534.48 153.06 527.83 147.81C523.01 144.06 518.08 140.31 513.25 136.45C506.82 131.45 500.39 126.27 494.07 121.23C489.35 117.48 484.53 113.83 479.81 110.08C473.28 104.83 466.63 99.58 459.99 94.33C455.27 90.68 450.55 86.93 445.84 83.18C440.84 79.18 435.66 75.18 430.51 71.07L421.51 63.99C414.97 58.53 408.33 53.17 401.79 47.71C397.5 44.17 392.89 41.27 387.32 40.42C383.929 39.8247 380.451 39.946 377.11 40.7761C373.768 41.6063 370.638 43.1269 367.92 45.24C362.45 49.24 359.13 54.56 357.09 60.89C345.757 95.29 334.47 129.693 323.23 164.1C319.15 176.43 315.17 188.64 311.11 201.1C310.804 202.04 310.735 203.042 310.909 204.016C311.084 204.989 311.496 205.904 312.11 206.68C312.262 206.876 312.425 207.064 312.6 207.24C161.3 213.53 40.6001 338.18 40.6001 491.01C40.6001 637.91 152.13 758.76 295.14 773.5L302.43 774.17L306.43 774.45H306.63C308.43 774.54 319.24 774.97 319.63 774.98H324.81H778.49C784.747 775.15 790.995 774.392 797.03 772.73C805.101 770.401 812.664 766.582 819.33 761.47C825.654 756.572 831.246 750.797 835.94 744.32C841.628 736.602 845.975 727.982 848.8 718.82C857.16 691.82 865.41 664.91 873.67 637.89C881.67 611.64 889.74 585.48 897.78 559.23C901.32 547.65 904.95 536 908.28 524.29C910.79 515.39 911.41 502.16 910.63 487.47ZM277.06 770.94L276.06 770.75H275.76H275.87H275.95H276.23C276.276 770.756 276.324 770.756 276.37 770.75L278.37 771.08H278.54L277.06 770.94ZM279.26 771.3H279.17L279.51 771.36L279.26 771.3ZM324.61 604.24C302.196 604.23 280.287 597.574 261.655 585.114C243.023 572.654 228.504 554.95 219.933 534.239C211.362 513.528 209.125 490.74 213.504 468.758C217.883 446.775 228.681 426.585 244.534 410.739C260.387 394.893 280.582 384.103 302.567 379.734C324.551 375.365 347.338 377.612 368.045 386.192C388.752 394.772 406.451 409.299 418.902 427.937C431.354 446.574 438 468.486 438 490.9C438.001 505.789 435.069 520.532 429.37 534.286C423.672 548.041 415.319 560.539 404.789 571.064C394.259 581.59 381.758 589.937 368 595.63C354.243 601.322 339.499 604.248 324.61 604.24ZM737.21 553.5C734.11 565.18 730.79 576.75 727.46 588.33C725.75 594.22 721.25 598.08 714.71 597.98H587.92C597.382 574.968 603.653 550.771 606.56 526.06C608.078 514.402 608.833 502.657 608.82 490.9C608.816 473.281 607.165 455.702 603.89 438.39C603.742 437.754 603.635 437.11 603.57 436.46C606.35 438.71 609.03 440.85 611.82 443.1C618.36 448.25 624.89 453.5 631.43 458.64C636.04 462.39 640.86 466.14 645.43 469.79C650.58 473.86 655.51 477.79 660.55 481.9C665.37 485.65 670.19 489.4 674.9 493.15C681.34 498.3 687.9 503.44 694.3 508.59C698.91 512.34 703.63 515.98 708.24 519.59C713.38 523.66 718.53 527.84 723.67 531.91C726.67 534.38 729.78 536.63 732.67 539.09C737.32 542.89 738.72 547.92 737.21 553.5Z" fill="#ED2324"></path><path d="M587.92 598C597.381 574.988 603.653 550.791 606.56 526.08C608.078 514.422 608.833 502.677 608.82 490.92C608.816 473.301 607.165 455.722 603.89 438.41C603.741 437.774 603.635 437.13 603.57 436.48L312.57 207.15L309.02 207.32H308.86H308.24L306.72 207.41H306.28L304.87 207.5L303.87 207.58H303.53C302.64 207.65 301.76 207.71 300.88 207.79L300.06 207.86L298.6 207.99H298.45L297.08 208.12L296.08 208.22L295.08 208.32L292.71 208.58L290.71 208.81C290.12 208.87 289.53 208.95 288.94 209.02C287.45 209.21 285.94 209.41 284.49 209.62L283.49 209.75L282.25 209.94L281.17 210.1C279.06 210.42 276.97 210.77 274.88 211.1L273.35 211.37C271.89 211.64 270.44 211.92 268.99 212.21L267.75 212.45L266.21 212.77L264.86 213.06C264.07 213.22 263.28 213.4 262.49 213.57L261.49 213.79L259.91 214.15C257.57 214.7 255.23 215.27 252.91 215.88L251.37 216.28L250.79 216.44L248.79 216.97L247.29 217.38L246.07 217.73L244.52 218.18L242.96 218.64L241.96 218.95L240.35 219.45C238.35 220.06 236.41 220.69 234.45 221.35L233.22 221.76L231.92 222.21L229.98 222.88L226.45 224.16L224.88 224.74C223.1 225.41 221.32 226.09 219.55 226.8L217.78 227.51L215.39 228.51L213.47 229.32L211.56 230.14L210.36 230.67L209.27 231.15L207.1 232.15L205.49 232.88C203.69 233.71 201.91 234.56 200.13 235.43L198.82 236.07C196.16 237.39 193.52 238.74 190.91 240.14L188.23 241.59C187.74 241.85 187.23 242.13 186.77 242.4C186.31 242.67 185.84 242.92 185.37 243.18L185.19 243.28L183.85 244.04C180.663 245.86 177.506 247.747 174.38 249.7C173.99 249.94 173.6 250.18 173.22 250.43C172.007 251.19 170.807 251.96 169.62 252.74L168.48 253.48L168.03 253.78L166.84 254.57C165.91 255.19 164.99 255.82 164.07 256.45L162.71 257.39L161.08 258.53L159.98 259.31C159.53 259.62 159.08 259.95 158.63 260.31L157 261.6L155.9 262.41L154.73 263.28C153.36 264.28 151.99 265.35 150.64 266.4L149.42 267.4L146.19 269.97L145.05 270.9L143.37 272.28L142.13 273.28L141.4 273.89L140.07 275.02L138.87 276.02L137.87 276.86L136.78 277.81L135.38 279.06L135.17 279.25L133.82 280.47L131.98 282.15L130.68 283.36L130.1 283.91C129.67 284.3 129.25 284.7 128.83 285.1C127.26 286.59 125.72 288.1 124.19 289.62C123.123 290.693 122.063 291.767 121.01 292.84C120.55 293.3 120.11 293.77 119.66 294.24L118.17 295.8L116.69 297.37C115.69 298.46 114.69 299.55 113.69 300.66C113.24 301.15 112.79 301.66 112.34 302.16C111.49 303.16 110.63 304.1 109.79 305.07L109.14 305.83L108.14 306.96C107.106 308.167 106.087 309.387 105.08 310.62L103.93 312.03L102.57 313.71L101.3 315.31L100.3 316.63L99.57 317.56L98.57 318.82C97.79 319.82 97.0099 320.88 96.2399 321.92L95.7999 322.52L94.6998 324.02L93.4398 325.78C92.5998 326.95 91.7598 328.13 90.9398 329.32C90.6198 329.78 90.2999 330.24 89.9899 330.71C88.6699 332.62 87.38 334.56 86.12 336.51L85.1798 337.97C83.4998 340.59 81.8666 343.237 80.2799 345.91L79.2799 347.59C53.8325 391.046 40.458 440.512 40.5399 490.87C40.5399 637.77 152.07 758.62 295.08 773.36L302.37 774.03L306.37 774.31H306.57C308.37 774.4 319.18 774.83 319.57 774.84H324.75C381.198 774.739 436.344 757.878 483.197 726.395C530.049 694.912 566.497 650.225 587.92 598ZM277.06 770.96L276.06 770.77H275.94H276.22C276.266 770.776 276.314 770.776 276.36 770.77L278.06 771.06L277.06 770.96ZM324.61 604.26C306.791 604.243 289.226 600.027 273.34 591.955C257.454 583.882 243.694 572.18 233.175 557.796C222.657 543.413 215.675 526.753 212.797 509.168C209.919 491.582 211.225 473.566 216.61 456.58C216.92 455.58 217.25 454.58 217.61 453.58C217.88 452.78 218.17 451.98 218.47 451.19C218.59 450.87 218.71 450.55 218.84 450.19C219.24 449.14 219.66 448.1 220.09 447.07C220.23 446.73 220.37 446.39 220.52 446.07C220.67 445.75 220.81 445.4 220.96 445.07C221.11 444.74 221.31 444.28 221.49 443.89C221.78 443.26 222.07 442.63 222.37 442.01L222.85 441.01L223.21 440.28L223.57 439.57C224 438.73 224.44 437.89 224.89 437.06C225.04 436.78 225.2 436.5 225.35 436.21L225.46 436.03C225.62 435.72 225.79 435.42 225.96 435.13C226.13 434.84 226.31 434.51 226.49 434.2C227.243 432.9 228.02 431.617 228.82 430.35L229.36 429.5C229.83 428.79 230.3 428.07 230.78 427.36L231.43 426.41C231.69 426.04 231.95 425.66 232.22 425.29C232.74 424.56 233.28 423.82 233.82 423.09L234.64 422.01L235.48 420.93C235.76 420.58 236.04 420.22 236.33 419.87C236.62 419.52 236.86 419.2 237.13 418.87C238.67 417.01 240.263 415.2 241.91 413.44L242.51 412.8C242.87 412.43 243.23 412.05 243.6 411.68L244.43 410.83C245.74 409.53 247.07 408.25 248.43 407.01L249.43 406.13L250.49 405.2L251.49 404.32L252.41 403.55L252.73 403.28C253.3 402.81 253.88 402.35 254.45 401.9L254.65 401.74L255.56 401.04C257.773 399.327 260.05 397.703 262.39 396.17L263.39 395.49L263.6 395.36L264.66 394.69L265.77 394.01C266.65 393.47 267.53 392.95 268.43 392.44C268.74 392.26 269.05 392.08 269.37 391.91L270.44 391.32L271.33 390.84L272 390.49H272.06L273.97 389.49C274.637 389.15 275.303 388.817 275.97 388.49L276.85 388.08L276.94 388.03L278.94 387.12L280.15 386.6L280.99 386.24L281.77 385.92L282.96 385.44H283.06L284.25 384.98C284.68 384.81 285.12 384.65 285.55 384.5L287 384L287.81 383.72L288.47 383.49L289.54 383.14L290.28 382.9L291.13 382.63L292.13 382.32L293.13 382.04L293.89 381.83C294.37 381.69 294.89 381.55 295.34 381.43L296.29 381.17C298.197 380.683 300.123 380.243 302.07 379.85L303.13 379.64C304.13 379.45 305.13 379.27 306.13 379.1C307.13 378.93 307.95 378.82 308.86 378.69L309.69 378.58L310.69 378.45L311.69 378.33L313.12 378.17L314.39 378.05L316.17 377.91L317.43 377.82L318.81 377.74L320.09 377.68H320.74H321.41H322.18C323.02 377.68 323.86 377.68 324.71 377.68C354.741 377.691 383.54 389.62 404.782 410.849C426.023 432.077 437.971 460.869 438 490.9C438 491.39 438 491.9 438 492.37V493.73C438 494.31 438 494.88 438 495.45L437.94 496.69C437.94 497.19 437.89 497.69 437.86 498.18C437.83 498.67 437.8 498.98 437.78 499.38C437.78 499.99 437.68 500.6 437.62 501.21C437.62 501.63 437.54 502.06 437.5 502.49C437.41 503.41 437.3 504.32 437.19 505.23C437.19 505.5 437.12 505.76 437.08 506.02L436.99 506.75C436.87 507.6 436.74 508.45 436.6 509.29C436.6 509.49 436.54 509.69 436.5 509.9C436.43 510.32 436.36 510.74 436.28 511.16C436.2 511.58 436.15 511.89 436.08 512.26V512.4C436.01 512.75 435.95 513.09 435.88 513.4C435.68 514.4 435.48 515.33 435.26 516.28C435.21 516.48 435.17 516.68 435.12 516.87C434.92 517.73 434.71 518.59 434.48 519.44C434.4 519.74 434.33 520.05 434.25 520.35C434.09 520.94 433.93 521.52 433.76 522.1C433.68 522.38 433.6 522.67 433.51 522.95C433.29 523.71 433.06 524.47 432.82 525.22L432.25 526.97C432.19 527.13 432.14 527.3 432.08 527.46L431.71 528.54L431.17 530.04C431.03 530.41 430.9 530.77 430.75 531.14C430.6 531.51 430.5 531.81 430.37 532.14L429.74 533.71C429.61 534.04 429.47 534.36 429.34 534.71V534.78L429.02 535.53L428.65 536.38C428.48 536.77 428.31 537.15 428.13 537.53L427.8 538.27L427.52 538.87C427.13 539.7 426.74 540.52 426.33 541.33C426.14 541.72 425.95 542.11 425.75 542.49L425.12 543.71L424.5 544.87L423.82 546.1L423.16 547.26C422.96 547.61 422.75 547.96 422.54 548.26C422.503 548.34 422.459 548.417 422.41 548.49C422.21 548.84 422 549.18 421.79 549.49C421.49 550 421.17 550.49 420.85 551.02L420.2 552.02L419.82 552.6C419.56 553.01 419.29 553.42 419.01 553.82C418.73 554.22 418.45 554.65 418.17 555.06L417.17 556.41C417.01 556.65 416.84 556.88 416.67 557.11L416.24 557.7C416.07 557.94 415.89 558.18 415.71 558.41C415.13 559.2 414.53 559.98 413.92 560.76L413.28 561.56L412.49 562.56C412.15 562.98 411.81 563.39 411.49 563.8C411.17 564.21 410.85 564.56 410.49 564.93L410.04 565.45L409.2 566.39L408.98 566.64C408.62 567.05 408.25 567.45 407.88 567.85C407.51 568.25 407.06 568.72 406.64 569.15C406.22 569.58 405.81 570.02 405.39 570.44C404.97 570.86 404.54 571.29 404.11 571.71L402.82 572.96C402.41 573.35 402 573.74 401.58 574.12L401.41 574.27C400.56 575.06 399.69 575.83 398.82 576.59L397.44 577.75C397.02 578.11 396.59 578.46 396.16 578.81L394.45 580.17L393.37 581L393.05 581.24L391.77 582.24C391.32 582.58 390.86 582.91 390.4 583.24L390.13 583.43C389.7 583.74 389.27 584.04 388.83 584.33L387.54 585.2L387.02 585.55L385.82 586.33L384.4 587.22L384.16 587.37L382.78 588.21C365.205 598.737 345.096 604.279 324.61 604.24V604.26Z" fill="url(#paint0_radial_0_1)"></path><path d="M324.05 774.92H319.62C319.17 774.92 307.29 774.44 306.38 774.38L302.38 774.1L295.1 773.44C293.153 773.24 291.213 773.017 289.28 772.77C185.77 759.9 99.5 691.33 61.46 598C39.5675 543.924 34.762 484.439 47.69 427.55L211.77 480.28C211.45 483.78 211.28 487.34 211.28 490.92C211.295 507.439 214.919 523.756 221.898 538.729C228.876 553.701 239.041 566.969 251.682 577.604C264.323 588.239 279.134 595.984 295.08 600.298C311.026 604.612 327.722 605.391 344 602.58L299.71 740.34L299.54 740.85C298.349 744.733 298.071 748.839 298.729 752.847C299.386 756.855 300.962 760.657 303.332 763.955C305.702 767.254 308.802 769.96 312.391 771.862C315.98 773.764 319.96 774.81 324.02 774.92H324.05Z" fill="url(#paint1_radial_0_1)"></path><path d="M885.87 598L885.71 598.53C884.177 603.537 882.64 608.537 881.1 613.53C880.633 615.07 880.16 616.613 879.68 618.16C877.68 624.713 875.68 631.27 873.68 637.83C865.42 664.83 857.17 691.75 848.81 718.76C845.985 727.922 841.638 736.542 835.95 744.26C831.257 750.737 825.664 756.512 819.34 761.41C812.674 766.522 805.111 770.341 797.04 772.67C791.005 774.332 784.757 775.09 778.5 774.92H324.79C381.24 774.805 436.384 757.928 483.23 726.431C530.076 694.933 566.513 650.234 587.92 598H885.87Z" fill="url(#paint2_radial_0_1)"></path><defs><radialGradient id="paint0_radial_0_1" cx="0" cy="0" r="1" gradientUnits="userSpaceOnUse" gradientTransform="translate(470.111 323.619) rotate(-48.74) scale(166.86 937.753)"><stop offset="0.14" stop-color="#B6161C"></stop><stop offset="1" stop-color="#ED1C24" stop-opacity="0"></stop></radialGradient><radialGradient id="paint1_radial_0_1" cx="0" cy="0" r="1" gradientUnits="userSpaceOnUse" gradientTransform="translate(349.163 708.121) rotate(32.29) scale(138.2 286.074)"><stop offset="0.08" stop-color="#B6161C"></stop><stop offset="1" stop-color="#ED1C24" stop-opacity="0"></stop></radialGradient><radialGradient id="paint2_radial_0_1" cx="0" cy="0" r="1" gradientUnits="userSpaceOnUse" gradientTransform="translate(474.277 628.961) rotate(30.6689) scale(213.268 364.35)"><stop offset="0.32" stop-color="#B6161C"></stop><stop offset="1" stop-color="#ED1C24" stop-opacity="0"></stop></radialGradient></defs></svg>