<svg xmlns="http://www.w3.org/2000/svg" width="876" height="740" viewBox="0 0 876 740" fill="none"><path d="M875.22 450.101C874.22 431.411 866.92 414.751 855.6 399.981C851.195 394.388 846.086 389.386 840.4 385.101C834.04 380.101 827.68 375.101 821.32 370.011C816.68 366.231 811.94 362.681 807.32 358.911C800.63 353.731 794.06 348.341 787.37 343.171C782.74 339.501 778.1 335.941 773.58 332.281C766.78 327.001 760.1 321.611 753.42 316.331C748.78 312.661 744.15 309.101 739.51 305.441C732.83 300.161 726.15 294.771 719.35 289.441C714.62 285.671 709.76 281.901 704.91 278.131C699.91 274.131 694.91 270.131 689.91 266.131C685.28 262.471 680.54 258.801 675.91 255.131L660.08 242.611C655.45 238.951 650.71 235.281 646.08 231.611C639.4 226.321 632.83 221.051 626.14 215.761C621.5 212.101 616.76 208.431 612.14 204.761C605.45 199.471 598.77 194.191 592.14 188.911C587.41 185.241 582.55 181.471 577.81 177.811C571.23 172.531 564.66 167.351 558.08 162.071C553.44 158.401 548.7 154.741 544.08 151.071C537.4 145.781 530.82 140.501 524.13 135.221C519.5 131.551 514.76 127.891 510.13 124.221C503.45 118.941 496.87 113.661 490.19 108.381C485.34 104.601 480.38 100.831 475.53 96.9506C469.06 91.8906 462.59 86.7106 456.23 81.6506C451.49 77.8806 446.63 74.2206 441.89 70.4406C435.33 65.1606 428.63 59.8806 421.95 54.6006C417.21 50.9306 412.48 47.1606 407.72 43.3906C402.65 39.3906 397.48 35.3006 392.3 31.2006L383.3 24.0906C376.74 18.6006 370.04 13.2006 363.46 7.70062C359.15 4.14062 354.52 1.23063 348.91 0.370631C345.5 -0.225196 342.003 -0.101538 338.643 0.733683C335.283 1.5689 332.135 3.09724 329.4 5.22063C323.9 9.22063 320.56 14.6006 318.51 20.9606C307.09 55.5606 295.737 90.1606 284.45 124.761C280.35 137.151 276.35 149.441 272.27 161.961C271.964 162.911 271.9 163.922 272.083 164.904C272.266 165.885 272.692 166.805 273.32 167.581C273.473 167.773 273.637 167.957 273.81 168.131C121.64 174.461 0.220215 299.821 0.220215 453.541C0.220215 601.291 112.41 722.831 256.22 737.661C256.31 737.661 262.78 738.271 263.56 738.331L267.56 738.611H267.76C269.58 738.701 280.45 739.131 280.88 739.141L286.08 739.191H742.4C748.691 739.362 754.973 738.601 761.04 736.931C769.126 734.579 776.702 730.74 783.38 725.611C789.742 720.687 795.365 714.878 800.08 708.361C805.806 700.6 810.181 691.928 813.02 682.711C821.43 655.541 829.73 628.491 838.02 601.321C846.1 574.911 854.19 548.611 862.27 522.201C865.83 510.541 869.48 498.841 872.84 487.061C875.38 478.171 876.02 464.871 875.22 450.101ZM238 735.191L236.94 735.011C236.835 735.005 236.73 734.985 236.63 734.951H236.51H236.86H237.14H237.29L239.24 735.281H239.42C238.946 735.281 238.471 735.251 238 735.191ZM240.2 735.561H240.08H240.41H240.2ZM285.82 567.561C263.273 567.561 241.233 560.875 222.485 548.348C203.738 535.822 189.126 518.017 180.498 497.187C171.87 476.356 169.612 453.434 174.011 431.32C178.409 409.207 189.267 388.894 205.21 372.95C221.153 357.007 241.466 346.15 263.58 341.751C285.694 337.352 308.616 339.61 329.446 348.238C350.277 356.867 368.081 371.478 380.608 390.226C393.134 408.973 399.82 431.014 399.82 453.561C399.82 483.795 387.81 512.792 366.43 534.171C345.051 555.55 316.055 567.561 285.82 567.561ZM700.82 516.561C697.7 528.311 694.36 539.951 691.01 551.561C689.29 557.491 684.76 561.371 678.18 561.271H550.64C564.411 527.032 571.538 490.485 571.64 453.581C571.639 435.858 569.982 418.175 566.69 400.761C566.54 400.118 566.43 399.467 566.36 398.811C569.16 401.081 571.86 403.241 574.66 405.501C581.24 410.671 587.81 415.961 594.39 421.131C599.02 424.901 603.86 428.671 608.51 432.341C613.68 436.441 618.64 440.421 623.71 444.521C628.56 448.301 633.41 452.071 638.15 455.841C644.62 461.011 651.15 466.191 657.66 471.361C662.3 475.141 667.04 478.801 671.66 482.461C676.83 486.561 682.01 490.761 687.18 494.851C690.18 497.331 693.32 499.581 696.24 502.071C700.91 505.831 702.31 510.891 700.8 516.501L700.82 516.561Z" fill="white"></path><path d="M550.64 561.241C564.411 527.002 571.538 490.455 571.64 453.551C571.639 435.828 569.982 418.145 566.69 400.731C566.54 400.088 566.43 399.437 566.36 398.781L273.75 168.141L270.18 168.311H270.02H269.4L267.86 168.401H267.42L266.01 168.501L265.01 168.571H264.66L262 168.781L261.18 168.851L259.72 168.981H259.57L258.19 169.111L257.19 169.211L256.19 169.321C255.39 169.401 254.6 169.481 253.81 169.581C253.02 169.681 252.49 169.721 251.81 169.801L250.04 170.021C248.54 170.211 247.04 170.411 245.56 170.621L244.56 170.761L243.32 170.941L242.22 171.101C240.107 171.427 238 171.777 235.9 172.151L234.36 172.421L229.97 173.261L228.73 173.511L227.18 173.831L225.82 174.121C225.02 174.281 224.23 174.461 223.44 174.641L222.44 174.861C221.91 174.971 221.38 175.091 220.86 175.221C218.5 175.767 216.15 176.347 213.81 176.961L212.27 177.371L211.68 177.521L209.68 178.051L208.17 178.471L206.94 178.841L205.39 179.291C204.86 179.441 204.34 179.591 203.82 179.761L202.82 180.061L201.2 180.561C199.2 181.181 197.2 181.821 195.27 182.481L194.03 182.891L192.72 183.341L190.72 184.021C189.54 184.431 188.35 184.861 187.17 185.301L185.59 185.891C183.797 186.557 182.01 187.247 180.23 187.961C179.64 188.191 179.05 188.431 178.46 188.691L176.04 189.691L174.08 190.611L172.17 191.431L170.96 191.961L169.87 192.441L167.68 193.441L166.06 194.171C164.26 195.001 162.46 195.851 160.68 196.721L159.35 197.371C156.684 198.704 154.017 200.067 151.35 201.461L148.66 202.921L147.2 203.731L145.79 204.521L145.61 204.621L144.27 205.381C141.057 207.221 137.88 209.117 134.74 211.071L133.57 211.801C132.36 212.571 131.15 213.341 129.95 214.131L128.81 214.871L128.36 215.171L127.16 215.971L124.38 217.851L123 218.801L121.36 219.951L120.27 220.731L118.91 221.731L117.18 222.991L116.09 223.801L114.91 224.681C113.53 225.707 112.157 226.754 110.79 227.821L109.57 228.771L106.32 231.361C105.96 231.671 105.56 231.981 105.18 232.291L103.49 233.681L102.24 234.681L101.51 235.301L100.17 236.441L98.9603 237.441L97.9603 238.301L96.8704 239.301L95.4603 240.551L95.2503 240.741L93.8904 241.971L92.0804 243.611L90.7703 244.821L90.1805 245.391L88.9004 246.601C87.3304 248.091 85.7703 249.601 84.2303 251.141C83.1569 252.207 82.0903 253.287 81.0303 254.381L79.6705 255.791C79.1705 256.311 78.6705 256.791 78.1805 257.361L76.6905 258.941C75.6771 260.034 74.6771 261.134 73.6905 262.241C73.2305 262.741 72.7804 263.241 72.3304 263.751L69.7603 266.671L69.1004 267.431C68.7704 267.801 68.4504 268.191 68.1004 268.571C67.1004 269.791 66.0403 271.011 65.0203 272.251L63.8604 273.671L62.5003 275.361C62.0503 275.931 61.6203 276.471 61.2103 276.971L60.2103 278.281L59.4803 279.231L58.4803 280.491C57.6936 281.531 56.9138 282.571 56.1404 283.611L55.6905 284.211L54.6004 285.731C54.1704 286.311 53.7504 286.901 53.3304 287.491C52.4804 288.671 51.6504 289.861 50.8204 291.051C50.4904 291.521 50.1804 291.981 49.8204 292.451C48.5004 294.371 47.2005 296.321 45.9305 298.271L44.9305 299.731C43.2505 302.357 41.607 305.024 40.0003 307.731L39.0003 309.411C13.3922 353.114 -0.0721806 402.867 0.000291017 453.521C0.000291017 601.271 112.18 722.811 256 737.641C256.08 737.641 262.55 738.251 263.33 738.311L267.33 738.591H267.53C269.35 738.681 280.21 739.111 280.64 739.121H285.85C342.634 739.011 398.105 722.032 445.223 690.341C492.34 658.649 528.98 613.673 550.49 561.121L550.64 561.241ZM238 735.191L236.94 735.011H236.82H237.1H237.25L238.95 735.301L238 735.191ZM285.82 567.531C267.895 567.516 250.226 563.278 234.245 555.16C218.263 547.042 204.42 535.272 193.837 520.805C183.254 506.338 176.229 489.58 173.331 471.891C170.434 454.201 171.746 436.078 177.16 418.991C177.48 417.991 177.82 416.991 178.16 415.991C178.44 415.191 178.73 414.381 179.03 413.591C179.14 413.261 179.27 412.941 179.39 412.591C179.8 411.531 180.21 410.491 180.65 409.451C180.79 409.111 180.94 408.771 181.09 408.451C181.24 408.131 181.38 407.781 181.53 407.451C181.68 407.121 181.89 406.661 182.06 406.261C182.35 405.631 182.64 405.001 182.94 404.371C183.1 404.041 183.26 403.701 183.43 403.371C183.6 403.041 183.67 402.881 183.8 402.641L184.16 401.911C184.59 401.061 185.04 400.221 185.49 399.391L185.95 398.531L186.06 398.341L186.56 397.441L187.1 396.511C187.85 395.201 188.64 393.911 189.45 392.631C189.62 392.351 189.81 392.071 189.99 391.781C190.45 391.051 190.93 390.331 191.41 389.631L192.07 388.631C192.33 388.271 192.59 387.881 192.86 387.511C193.38 386.771 193.92 386.031 194.47 385.301C194.74 384.931 195.02 384.571 195.3 384.201L196.14 383.111C196.42 382.751 196.7 382.381 196.99 382.041C197.28 381.701 197.53 381.371 197.8 381.041C199.354 379.167 200.957 377.347 202.61 375.581L203.21 374.941L204.3 373.811L205.14 372.961C206.46 371.651 207.8 370.361 209.14 369.111L210.14 368.231L211.21 367.301L212.21 366.411L213.14 365.631L213.46 365.361L215.19 363.971L215.39 363.811C215.69 363.571 216 363.341 216.3 363.081C218.527 361.367 220.817 359.737 223.17 358.191L224.17 357.511L224.38 357.381L225.45 356.711L226.56 356.021C227.45 355.481 228.34 354.961 229.24 354.441C229.55 354.261 229.86 354.071 230.18 353.911L231.27 353.311L232.17 352.831L232.84 352.461H232.9L234.83 351.461C235.47 351.141 236.19 350.791 236.88 350.461C237.17 350.311 237.46 350.181 237.76 350.041H237.85C238.53 349.721 239.21 349.421 239.85 349.121C240.26 348.941 240.66 348.751 241.07 348.591L241.92 348.231L242.7 347.911L243.9 347.421H244L245.2 346.961L246.51 346.471L247.82 346.001L248.63 345.721L249.3 345.491L250.37 345.131L251.12 344.891L251.98 344.621L252.98 344.311L253.98 344.031L254.75 343.811L256.201 343.411L257.201 343.151C259.121 342.671 261.06 342.221 263.03 341.821L264.09 341.611L267.09 341.071C268 340.921 268.91 340.781 269.83 340.651L270.67 340.541L271.67 340.411L272.67 340.291L274.11 340.141L275.38 340.011L277.18 339.871L278.44 339.781L279.84 339.701L281.12 339.641H281.78H282.451H283.22H285.76C315.995 339.641 344.992 351.651 366.371 373.03C387.75 394.41 399.76 423.406 399.76 453.641V455.101C399.76 455.561 399.76 456.011 399.76 456.471C399.76 456.931 399.76 457.621 399.76 458.201C399.76 458.611 399.761 459.031 399.701 459.451C399.641 459.871 399.65 460.451 399.62 460.941C399.59 461.431 399.57 461.741 399.54 462.141C399.54 462.761 399.44 463.381 399.38 463.991C399.38 464.421 399.3 464.851 399.26 465.281C399.17 466.201 399.061 467.121 398.951 468.031C398.951 468.301 398.88 468.571 398.84 468.831C398.8 469.091 398.78 469.321 398.74 469.561C398.63 470.411 398.49 471.261 398.36 472.111C398.36 472.311 398.29 472.511 398.25 472.721C398.19 473.141 398.11 473.571 398.03 473.991C397.95 474.411 397.9 474.721 397.83 475.081C397.845 475.13 397.845 475.182 397.83 475.231C397.76 475.571 397.7 475.921 397.63 476.231C397.43 477.231 397.22 478.171 397 479.151C397 479.351 396.91 479.541 396.86 479.741C396.66 480.611 396.45 481.471 396.23 482.331L395.99 483.241C395.83 483.831 395.67 484.411 395.5 485.001L395.25 485.851C395.02 486.621 394.79 487.381 394.55 488.131L393.98 489.891L393.81 490.391C393.69 490.751 393.56 491.111 393.44 491.481C393.32 491.851 393.08 492.481 392.9 492.991C392.72 493.501 392.63 493.711 392.49 494.101L392.1 495.101L391.47 496.671C391.34 497.001 391.2 497.331 391.06 497.671V497.751C390.96 498.001 390.85 498.241 390.74 498.501C390.63 498.761 390.49 499.071 390.37 499.361L389.86 500.521C389.75 500.771 389.63 501.011 389.52 501.251C389.41 501.491 389.33 501.651 389.24 501.851C388.85 502.681 388.45 503.511 388.05 504.331C387.85 504.711 387.66 505.101 387.46 505.491C387.26 505.881 387.04 506.311 386.82 506.711L386.19 507.881L385.51 509.121L384.85 510.281C384.62 510.671 384.44 511.011 384.22 511.351L384.09 511.581C383.89 511.941 383.68 512.271 383.47 512.581C383.16 513.101 382.85 513.581 382.47 514.121C382.09 514.661 382.04 514.811 381.81 515.121L381.451 515.701L380.63 516.931C380.36 517.341 380.07 517.761 379.79 518.171C379.51 518.581 379.16 519.081 378.79 519.531C378.63 519.771 378.46 520.011 378.28 520.241L377.86 520.831C377.71 521.031 377.49 521.311 377.33 521.561C376.74 522.361 376.14 523.141 375.51 523.921L374.86 524.731L374.07 525.731C373.73 526.151 373.38 526.561 373.07 526.981L372.07 528.121L371.61 528.641C371.33 528.961 371.06 529.271 370.77 529.581L370.55 529.841L369.451 531.051C369.051 531.491 368.63 531.931 368.21 532.361C367.79 532.791 367.381 533.231 366.951 533.661C366.521 534.091 366.1 534.521 365.67 534.941L364.37 536.191C363.93 536.611 363.54 536.971 363.12 537.351L362.951 537.511C362.091 538.311 361.22 539.081 360.34 539.841L358.96 541.011C358.5 541.401 358.1 541.741 357.67 542.081L355.951 543.441C355.591 543.731 355.22 544.001 354.86 544.281L354.54 544.521C354.114 544.854 353.684 545.187 353.25 545.521L351.87 546.521L351.6 546.711L350.29 547.621L349 548.501L348.48 548.861L347.26 549.651L345.83 550.551L345.59 550.691L344.201 551.541C326.555 562.06 306.384 567.59 285.84 567.541L285.82 567.531Z" fill="url(#paint0_radial_2_92)"></path><path d="M285.25 739.201C283.73 739.201 280.86 739.151 280.8 739.151C280.35 739.151 268.42 738.671 267.48 738.611L263.48 738.331C262.71 738.271 256.231 737.671 256.151 737.661C254.191 737.461 252.24 737.241 250.3 737.001C146.13 724.091 59.3805 655.131 21.1305 561.241C-0.889528 506.85 -5.71963 447.019 7.2904 389.801L172.29 442.851C171.96 446.361 171.79 449.941 171.79 453.541C171.788 470.165 175.422 486.588 182.437 501.66C189.452 516.732 199.679 530.087 212.4 540.789C225.121 551.491 240.029 559.282 256.079 563.614C272.129 567.947 288.932 568.717 305.31 565.871L260.76 704.421L260.59 704.931C258.53 711.647 259.22 718.907 262.509 725.115C265.797 731.323 271.416 735.972 278.13 738.041C280.428 738.74 282.809 739.131 285.21 739.201H285.25Z" fill="url(#paint1_radial_2_92)"></path><path d="M850.32 561.241L850.15 561.771C848.61 566.811 847.067 571.851 845.52 576.891C845.03 578.441 844.52 579.991 844.09 581.541L838.08 601.331C829.78 628.501 821.48 655.561 813.08 682.721C810.225 691.946 805.829 700.621 800.08 708.381C795.362 714.889 789.738 720.691 783.38 725.611C776.675 730.75 769.068 734.59 760.95 736.931C754.883 738.6 748.601 739.365 742.31 739.201H286.01C342.791 739.084 398.258 722.102 445.373 690.411C492.487 658.72 529.126 613.748 550.64 561.201L850.32 561.241Z" fill="url(#paint2_radial_2_92)"></path><defs><radialGradient id="paint0_radial_2_92" cx="0" cy="0" r="1" gradientUnits="userSpaceOnUse" gradientTransform="translate(436.832 290.057) rotate(-48.6522) scale(167.67 943.027)"><stop offset="0.14" stop-color="#BCBEC0"></stop><stop offset="1" stop-color="white" stop-opacity="0"></stop></radialGradient><radialGradient id="paint1_radial_2_92" cx="0" cy="0" r="1" gradientUnits="userSpaceOnUse" gradientTransform="translate(319.857 663.661) rotate(31.9448) scale(139.236 288.047)"><stop offset="0.08" stop-color="#BCBEC0"></stop><stop offset="1" stop-color="white" stop-opacity="0"></stop></radialGradient><radialGradient id="paint2_radial_2_92" cx="0" cy="0" r="1" gradientUnits="userSpaceOnUse" gradientTransform="translate(436.645 592.416) rotate(30.6689) scale(214.498 366.451)"><stop offset="0.32" stop-color="#BCBEC0"></stop><stop offset="1" stop-color="white" stop-opacity="0"></stop></radialGradient></defs></svg>